<svg width="564" height="491" viewBox="0 0 564 491" fill="none" xmlns="http://www.w3.org/2000/svg">
<g clip-path="url(#clip0_99_291)">
<path d="M544.262 205.557C516.057 242.576 462.835 251.053 418.799 238.16C404.391 233.838 390.49 227.899 377.35 220.45C369.717 216.196 362.268 211.529 354.97 206.557C353.174 205.339 351.379 204.102 349.601 202.84C348.39 201.99 347.183 201.13 345.98 200.26C330.909 189.378 316.43 177.44 302.193 165.571C266.654 135.942 230.141 105.401 186.475 91.2645C177.48 88.3534 165.842 86.9916 160.279 94.8127C155.452 101.603 158.398 111.217 162.482 118.501C177.632 145.481 205.131 162.516 232.654 175.616C260.177 188.716 289.332 199.329 313.258 218.482C337.185 237.635 355.451 268.076 350.557 298.804C346.339 325.285 325.273 346.799 300.781 356.175C276.289 365.546 248.972 364.24 223.512 358.156C198.052 352.065 173.882 341.439 149.311 332.281C134.496 326.753 115.129 322.93 105.299 335.58C96.9971 346.268 101.769 363.128 111.879 372.024C121.988 380.919 135.671 383.899 148.727 386.573C189.263 394.881 229.8 403.187 270.336 411.491C282.771 414.034 295.498 416.695 306.332 423.467C317.166 430.232 325.906 442.051 325.596 455.063C325.285 467.888 316.138 479.22 304.926 484.898C293.721 490.571 280.78 491.445 268.297 490.833C221.516 488.534 87.3986 412.254 55.2311 402.502C34.5611 396.243 11.9619 387.048 3.24573 366.82C-7.60665 341.639 10.2515 311.173 34.628 299.673C58.9986 288.166 87.2524 290.715 113.814 294.588C140.376 298.461 167.814 303.389 193.67 296.031C219.525 288.672 243.214 264.684 240.664 237.273C238.442 213.422 217.511 195.45 195.483 187.529C178.24 181.326 159.896 179.639 141.782 176.847C136.754 176.078 131.745 175.216 126.785 174.154C114.081 171.422 101.689 167.34 89.8089 161.973C77.3426 156.353 65.4994 149.377 54.4825 141.164C45.6955 134.624 37.4838 127.306 29.9416 119.294C28.7912 118.07 27.6529 116.818 26.5268 115.54C25.4558 114.315 24.3966 113.066 23.362 111.792C9.89848 95.2812 -0.0471585 74.9477 2.93549 53.9957C5.9116 33.0999 21.7795 15.7024 40.6721 7.34408C51.5914 2.51525 63.3689 0.353832 75.2924 0.0414884C84.0109 -0.137346 92.7269 0.50671 101.331 1.96553C141.143 8.49975 177.626 28.3523 212.082 49.8478C246.531 71.3433 280.105 94.9377 317.555 110.261C355.006 125.591 397.636 132.082 435.629 118.22C473.621 104.364 504.833 66.5582 502.976 25.2226C528.175 47.4927 549.587 75.4849 559.07 108.194C568.553 140.902 564.743 178.671 544.262 205.557Z" fill="#520808"/>
<path d="M362.705 162.838C365.151 162.838 367.134 160.803 367.134 158.292C367.134 155.781 365.151 153.745 362.705 153.745C360.258 153.745 358.275 155.781 358.275 158.292C358.275 160.803 360.258 162.838 362.705 162.838Z" fill="#611111"/>
<path d="M519.129 105.351C522.911 105.351 525.977 102.204 525.977 98.3218C525.977 94.4398 522.911 91.2928 519.129 91.2928C515.346 91.2928 512.28 94.4398 512.28 98.3218C512.28 102.204 515.346 105.351 519.129 105.351Z" fill="#FF6584"/>
<path d="M69.9411 322.058C71.3387 322.058 72.4716 320.895 72.4716 319.461C72.4716 318.027 71.3387 316.864 69.9411 316.864C68.5436 316.864 67.4106 318.027 67.4106 319.461C67.4106 320.895 68.5436 322.058 69.9411 322.058Z" fill="#FF6584"/>
<path d="M142.573 170.162C142.575 172.415 142.309 174.66 141.782 176.847C136.755 176.078 131.745 175.216 126.785 174.154C114.081 171.422 101.689 167.34 89.8091 161.973C91.7195 155.642 95.7782 150.224 101.248 146.703C106.719 143.182 113.238 141.79 119.622 142.781C126.007 143.772 131.834 147.08 136.045 152.104C140.256 157.128 142.572 163.535 142.573 170.162Z" fill="#FF6584"/>
<path d="M475.306 146.58C476.735 146.58 477.894 145.391 477.894 143.924C477.894 142.457 476.735 141.268 475.306 141.268C473.876 141.268 472.718 142.457 472.718 143.924C472.718 145.391 473.876 146.58 475.306 146.58Z" fill="#F0F0F0"/>
<path d="M238.539 438.934C239.968 438.934 241.127 437.744 241.127 436.277C241.127 434.81 239.968 433.621 238.539 433.621C237.109 433.621 235.951 434.81 235.951 436.277C235.951 437.744 237.109 438.934 238.539 438.934Z" fill="#F0F0F0"/>
<path d="M275.667 475.79C277.096 475.79 278.255 474.601 278.255 473.134C278.255 471.667 277.096 470.478 275.667 470.478C274.237 470.478 273.079 471.667 273.079 473.134C273.079 474.601 274.237 475.79 275.667 475.79Z" fill="#F0F0F0"/>
<path d="M46.2037 370.843C47.633 370.843 48.7917 369.654 48.7917 368.187C48.7917 366.72 47.633 365.53 46.2037 365.53C44.7744 365.53 43.6157 366.72 43.6157 368.187C43.6157 369.654 44.7744 370.843 46.2037 370.843Z" fill="#F0F0F0"/>
<path d="M173.413 321.492C174.842 321.492 176.001 320.303 176.001 318.836C176.001 317.369 174.842 316.18 173.413 316.18C171.983 316.18 170.825 317.369 170.825 318.836C170.825 320.303 171.983 321.492 173.413 321.492Z" fill="#F0F0F0"/>
<path d="M160.631 57.8746C162.06 57.8746 163.219 56.6854 163.219 55.2184C163.219 53.7515 162.06 52.5623 160.631 52.5623C159.202 52.5623 158.043 53.7515 158.043 55.2184C158.043 56.6854 159.202 57.8746 160.631 57.8746Z" fill="#F0F0F0"/>
<path d="M317.055 265.895C318.485 265.895 319.643 264.706 319.643 263.239C319.643 261.772 318.485 260.583 317.055 260.583C315.626 260.583 314.467 261.772 314.467 263.239C314.467 264.706 315.626 265.895 317.055 265.895Z" fill="#F0F0F0"/>
<path d="M336.532 312.122C337.962 312.122 339.12 310.933 339.12 309.466C339.12 307.999 337.962 306.81 336.532 306.81C335.103 306.81 333.944 307.999 333.944 309.466C333.944 310.933 335.103 312.122 336.532 312.122Z" fill="#F0F0F0"/>
<path d="M103.254 63.697C103.273 77.1082 100.185 90.3319 94.2459 102.278C93.4607 103.852 92.6288 105.399 91.7503 106.919C83.0525 121.994 70.0393 133.952 54.4823 141.164C45.6953 134.624 37.4836 127.306 29.9415 119.294C28.791 118.07 27.6528 116.818 26.5267 115.54C25.4556 114.315 24.3964 113.066 23.3619 111.792C9.89832 95.2812 -0.0473132 74.9476 2.93534 53.9956C5.91145 33.0998 21.7793 15.7023 40.672 7.34397C51.5912 2.51514 63.3687 0.353756 75.2922 0.0414124C84.6152 8.49159 91.9649 18.9877 96.7961 30.751C97.4047 32.2315 97.9647 33.7308 98.4942 35.2488C101.653 44.3827 103.263 54.0048 103.254 63.697Z" fill="#EB5151"/>
<path d="M140.99 68.0698C140.99 81.082 128.611 93.151 106.127 102.065C101.629 103.852 96.8142 105.47 91.7503 106.919C72.7967 112.341 50.2398 115.346 26.5266 115.54C25.4556 114.315 24.3964 113.066 23.3618 111.792C23.6174 111.798 23.873 111.798 24.1286 111.798C49.8808 111.798 74.3124 108.45 94.2458 102.278C97.9281 101.134 101.458 99.8976 104.812 98.567C125.482 90.3773 137.339 79.2579 137.339 68.0698C137.339 56.8816 125.482 45.7684 104.812 37.5726C102.767 36.7605 100.661 35.9859 98.4942 35.2487C97.9646 33.7307 97.4047 32.2315 96.7961 30.751C100.034 31.788 103.144 32.8957 106.127 34.0743C128.61 42.9886 140.99 55.0638 140.99 68.0698Z" fill="#E4E4E4"/>
<path d="M27.9439 21.6427C29.3732 21.6427 30.5319 20.4535 30.5319 18.9866C30.5319 17.5196 29.3732 16.3304 27.9439 16.3304C26.5146 16.3304 25.356 17.5196 25.356 18.9866C25.356 20.4535 26.5146 21.6427 27.9439 21.6427Z" fill="#F0F0F0"/>
<path d="M82.1144 38.5093C83.5437 38.5093 84.7023 37.3201 84.7023 35.8531C84.7023 34.3862 83.5437 33.197 82.1144 33.197C80.685 33.197 79.5264 34.3862 79.5264 35.8531C79.5264 37.3201 80.685 38.5093 82.1144 38.5093Z" fill="#F0F0F0"/>
<path d="M54.1162 88.5445C68.0155 88.5445 79.2831 76.9801 79.2831 62.7146C79.2831 48.4492 68.0155 36.8848 54.1162 36.8848C40.2168 36.8848 28.9492 48.4492 28.9492 62.7146C28.9492 76.9801 40.2168 88.5445 54.1162 88.5445Z" fill="#F0F0F0"/>
<path opacity="0.3" d="M518.887 199.423C513.238 201.134 500.785 202.396 487.091 203.171C473.402 203.939 458.387 204.277 443.559 204.601C417.607 205.176 391.656 205.753 365.707 206.332C362.14 206.413 358.561 206.488 354.97 206.557C353.174 205.339 351.379 204.102 349.602 202.84C352.785 202.858 355.968 202.84 359.127 202.777C372.621 202.502 384.045 201.422 397.058 200.909C417.083 200.116 438.702 200.741 459.573 201.059C480.444 201.384 504.224 201.266 518.887 199.423Z" fill="#F0F0F0"/>
<path opacity="0.3" d="M120.564 396.343L37.8354 325.609L118.205 399.176C118.361 399.445 118.577 399.673 118.835 399.839C119.093 400.005 119.387 400.106 119.69 400.133C119.994 400.16 120.3 400.112 120.582 399.993C120.864 399.874 121.114 399.688 121.312 399.45C121.51 399.213 121.65 398.93 121.721 398.625C121.791 398.321 121.789 398.003 121.716 397.7C121.643 397.396 121.501 397.114 121.3 396.878C121.1 396.643 120.848 396.459 120.564 396.343H120.564Z" fill="#F0F0F0"/>
<path d="M57.7682 128.464C59.1975 128.464 60.3561 127.275 60.3561 125.808C60.3561 124.341 59.1975 123.152 57.7682 123.152C56.3389 123.152 55.1802 124.341 55.1802 125.808C55.1802 127.275 56.3389 128.464 57.7682 128.464Z" fill="#F0F0F0"/>
<path d="M275.123 433.579L285.827 433.578L290.92 391.201L275.121 391.202L275.123 433.579Z" fill="#FFB6B6"/>
<path d="M272.392 429.992L275.405 429.992L287.168 425.082L293.473 429.991H293.474C297.037 429.991 300.454 431.444 302.974 434.03C305.493 436.615 306.908 440.122 306.909 443.779V444.227L272.393 444.229L272.392 429.992Z" fill="#2F2E41"/>
<path d="M194.957 433.579L184.253 433.578L179.16 391.201L194.959 391.202L194.957 433.579Z" fill="#FFB6B6"/>
<path d="M197.687 444.229L163.171 444.227V443.779C163.172 440.122 164.587 436.615 167.107 434.03C169.626 431.444 173.043 429.991 176.606 429.991H176.607L182.912 425.082L194.675 429.992L197.688 429.992L197.687 444.229Z" fill="#2F2E41"/>
<path d="M233.313 108.813L222.474 117.284L193.682 125.11C193.682 125.11 203.999 199.423 199.129 204.42C194.26 209.418 198.652 209.552 197.673 216.044C196.695 222.536 192.796 239.676 192.796 239.676H278.731C278.731 239.676 279.423 229.024 275.187 226.717C270.951 224.41 279.092 213.643 275.63 211.843C272.168 210.042 277.037 194.425 277.037 194.425L287.59 143.295L259.522 120.756L255.254 110.201L233.313 108.813Z" fill="white"/>
<path d="M246.837 175.218C248.908 175.218 250.587 173.495 250.587 171.369C250.587 169.244 248.908 167.52 246.837 167.52C244.766 167.52 243.087 169.244 243.087 171.369C243.087 173.495 244.766 175.218 246.837 175.218Z" fill="#F2F2F2"/>
<path d="M192.796 239.676L189.252 333.33C189.252 333.33 173.951 402.501 176.609 404.32C179.267 406.139 180.393 416.982 180.393 416.982L195.453 418.8C195.453 418.8 195.453 411.526 198.997 408.799C202.541 406.071 235.32 277.865 235.32 277.865L267.299 401.821C267.299 401.821 268.099 408.799 270.757 408.799C273.415 408.799 274.301 418.8 274.301 418.8H289.361V408.799C289.361 408.799 296.129 406.597 293.471 399.323C290.813 392.048 278.73 239.676 278.73 239.676H192.796Z" fill="#2F2E41"/>
<path d="M244.568 103.232C254.598 103.232 262.73 94.8866 262.73 84.5921C262.73 74.2977 254.598 65.9523 244.568 65.9523C234.538 65.9523 226.407 74.2977 226.407 84.5921C226.407 94.8866 234.538 103.232 244.568 103.232Z" fill="#FFB6B6"/>
<path opacity="0.1" d="M275.63 168.299L279.173 171.027L280.945 158.298L275.63 168.299Z" fill="black"/>
<path d="M195.38 125.037C195.38 125.037 190.95 124.128 188.293 132.311C185.635 140.495 175.89 171.41 175.89 176.865C175.89 182.321 236.579 206.392 236.579 206.392L230.264 183.656L202.467 168.682L195.38 125.037Z" fill="white"/>
<path opacity="0.1" d="M201.657 157.419L202.467 168.682L228.171 182.529L205.309 166.79L201.657 157.419Z" fill="black"/>
<path d="M263.45 159.025H263.116V149.649C263.116 148.937 262.98 148.231 262.714 147.573C262.448 146.914 262.059 146.316 261.568 145.812C261.077 145.309 260.494 144.909 259.853 144.636C259.211 144.363 258.524 144.223 257.829 144.223H238.476C237.782 144.223 237.094 144.363 236.453 144.636C235.811 144.909 235.228 145.308 234.738 145.812C234.247 146.316 233.857 146.914 233.591 147.573C233.326 148.231 233.189 148.937 233.189 149.649V201.084C233.189 201.797 233.326 202.502 233.591 203.16C233.857 203.819 234.247 204.417 234.737 204.921C235.228 205.425 235.811 205.824 236.453 206.097C237.094 206.37 237.782 206.51 238.476 206.51H257.829C258.524 206.51 259.211 206.37 259.853 206.097C260.494 205.824 261.077 205.425 261.568 204.921C262.059 204.417 262.448 203.819 262.714 203.16C262.98 202.502 263.116 201.797 263.116 201.084V165.698H263.45V159.025Z" fill="#020202"/>
<path d="M239.394 203.021C245.109 203.021 249.741 198.267 249.741 192.402C249.741 186.537 245.109 181.782 239.394 181.782C233.679 181.782 229.047 186.537 229.047 192.402C229.047 198.267 233.679 203.021 239.394 203.021Z" fill="#FFB6B6"/>
<path d="M287.59 143.295C287.59 143.295 290.248 145.113 292.019 153.297C293.791 161.48 305.308 192.395 300.879 199.669C296.449 206.943 295.141 214.707 280.081 203.796L259.24 184.212L274.301 169.663L280.502 174.21L287.59 143.295Z" fill="white"/>
<path d="M248.389 167.148C250.836 167.148 252.819 165.112 252.819 162.601C252.819 160.09 250.836 158.055 248.389 158.055C245.943 158.055 243.959 160.09 243.959 162.601C243.959 165.112 245.943 167.148 248.389 167.148Z" fill="white"/>
<path d="M261.212 183.181C266.927 183.181 271.56 178.426 271.56 172.561C271.56 166.696 266.927 161.941 261.212 161.941C255.498 161.941 250.865 166.696 250.865 172.561C250.865 178.426 255.498 183.181 261.212 183.181Z" fill="#FFB6B6"/>
<path opacity="0.1" d="M201.169 191.41L230.873 204.895L200.344 198.772L201.169 191.41Z" fill="black"/>
<path d="M226.246 88.3068L223.752 78.5668C223.101 76.0254 222.445 73.4326 222.591 70.8092C222.738 68.1859 223.822 65.4788 225.975 64.0576C228.129 62.6364 231.416 62.9721 232.802 65.1816C233.065 61.6535 236.192 58.9398 239.51 57.9784C242.828 57.017 246.351 57.3972 249.795 57.5594C253.239 57.7216 256.874 57.6084 259.846 55.8157C260.073 56.5132 260.058 57.2696 259.804 57.9571C259.55 58.6447 259.073 59.2213 258.453 59.5896C259.192 59.7965 259.98 59.7076 260.657 59.3409C261.335 58.9742 261.851 58.3571 262.102 57.6143C262.125 59.6576 261.389 61.6331 260.044 63.1399C261.327 62.4868 262.8 62.3468 264.178 62.7472C265.556 63.1476 266.739 64.0597 267.498 65.3061C269.015 68.0052 268.165 71.3949 267.277 74.3747L262.722 89.6686C262.031 87.3436 261.901 84.8891 261.531 82.4882C261.162 80.0874 260.504 77.6356 258.96 75.7928C257.416 73.9499 254.793 72.8826 252.599 73.7977C251.368 74.311 250.43 75.3526 249.318 76.1001C247.038 77.6338 244.137 77.8538 241.428 77.5417C238.719 77.2296 236.079 76.4378 233.37 76.1215C231.674 75.9235 229.781 75.9759 228.501 77.1354C227.621 78.074 227.04 79.2651 226.834 80.5507C226.23 83.1131 225.993 85.7521 226.13 88.3847" fill="#2F2E41"/>
</g>
<defs>
<clipPath id="clip0_99_291">
<rect width="564" height="491" fill="white"/>
</clipPath>
</defs>
</svg>
