<svg width="612" height="512" viewBox="0 0 612 512" fill="none" xmlns="http://www.w3.org/2000/svg">
<g clip-path="url(#clip0_99_466)">
<path opacity="0.1" d="M280.436 452.102C420.896 452.102 534.762 442.476 534.762 430.601C534.762 418.726 420.896 409.1 280.436 409.1C139.975 409.1 26.1089 418.726 26.1089 430.601C26.1089 442.476 139.975 452.102 280.436 452.102Z" fill="#FF0000"/>
<g opacity="0.1">
<path opacity="0.1" d="M505.691 308.082C504.171 303.059 498.008 300.746 491.928 302.922C491.052 303.233 490.204 303.632 489.396 304.114C489.007 303.997 488.606 303.893 488.2 303.815C488.532 302.369 488.659 300.877 488.577 299.39C490.674 297.863 492.375 295.774 493.517 293.324C494.659 290.875 495.204 288.146 495.099 285.402C497.191 283.869 498.886 281.779 500.024 279.33C501.162 276.881 501.704 274.155 501.598 271.413C503.706 269.9 505.406 267.804 506.523 265.34C509.455 259.02 508.24 251.918 503.806 249.475C499.372 247.031 493.394 250.178 490.462 256.498C489.299 258.938 488.756 261.671 488.888 264.415C486.796 265.947 485.1 268.037 483.963 270.487C482.825 272.936 482.283 275.662 482.389 278.404C480.297 279.936 478.602 282.026 477.464 284.475C476.326 286.925 475.784 289.651 475.89 292.393C473.794 293.923 472.093 296.013 470.951 298.463C469.809 300.914 469.264 303.643 469.367 306.388C467.26 307.901 465.56 309.996 464.442 312.461C463.891 313.648 463.473 314.904 463.198 316.201C462.463 315.031 461.566 313.991 460.541 313.119C460.423 312.124 460.223 311.142 459.942 310.187C457.944 303.56 452.582 299.521 447.974 301.176C443.366 302.831 441.236 309.535 443.235 316.162C444.053 319.003 445.627 321.515 447.759 323.381C447.876 324.376 448.076 325.357 448.357 326.313C449.518 330.157 451.81 333.128 454.431 334.62C454.199 335.45 454.033 336.3 453.934 337.161C451.463 339.749 449.872 343.175 449.422 346.876C446.949 349.465 445.358 352.893 444.91 356.597C443.685 357.878 442.673 359.379 441.918 361.034C438.98 367.354 440.195 374.463 444.629 376.9C449.063 379.337 455.041 376.203 457.979 369.876C458.754 368.226 459.26 366.443 459.476 364.605C461.947 362.017 463.538 358.591 463.988 354.89C466.461 352.301 468.052 348.873 468.5 345.169C470.954 342.575 472.526 339.149 472.958 335.454C475.44 332.865 477.036 329.431 477.482 325.72C478.243 324.934 478.923 324.06 479.511 323.114C481.955 323.66 484.49 323.487 486.853 322.612C487.729 322.301 488.577 321.902 489.384 321.42C492.031 322.18 494.825 322.071 497.415 321.107C503.477 318.95 507.205 313.112 505.691 308.082Z" fill="#3F3D56"/>
<g opacity="0.1">
<path opacity="0.1" d="M494.962 288.275C494.334 288.947 493.644 289.548 492.903 290.067C492.997 291.927 492.772 293.789 492.239 295.559C492.71 294.851 493.13 294.103 493.495 293.324C494.238 291.741 494.733 290.035 494.962 288.275Z" fill="black"/>
<path opacity="0.1" d="M501.461 274.286C500.833 274.958 500.143 275.559 499.402 276.078C499.496 277.938 499.271 279.8 498.738 281.57C499.21 280.86 499.63 280.111 499.994 279.329C500.734 277.747 501.229 276.043 501.461 274.286Z" fill="black"/>
<path opacity="0.1" d="M486.722 269.08C486.667 268.121 486.701 267.158 486.823 266.207C485.661 267.454 484.695 268.9 483.963 270.487C483.602 271.27 483.297 272.083 483.053 272.918C484.044 271.399 485.288 270.097 486.722 269.08Z" fill="black"/>
<path opacity="0.1" d="M445.473 353.737C445.996 352.943 446.587 352.206 447.238 351.535C447.34 350.651 447.514 349.778 447.759 348.928C447.238 349.689 446.78 350.498 446.388 351.346C446.027 352.116 445.72 352.915 445.473 353.737Z" fill="black"/>
<path opacity="0.1" d="M449.985 344.029C450.508 343.235 451.099 342.498 451.75 341.826C451.848 340.965 452.014 340.115 452.247 339.285C451.75 340.024 451.31 340.807 450.93 341.624C450.56 342.399 450.244 343.203 449.985 344.029Z" fill="black"/>
<path opacity="0.1" d="M488.457 302.264C487.832 302.936 487.144 303.534 486.404 304.049C486.486 305.536 486.359 307.028 486.027 308.473C486.431 308.549 486.831 308.649 487.224 308.773C488.032 308.291 488.879 307.891 489.755 307.581C495.847 305.404 502.005 307.717 503.519 312.741C503.895 314.004 503.961 315.351 503.711 316.65C505.715 314.083 506.547 310.956 505.685 308.089C504.165 303.065 498.002 300.752 491.922 302.928C491.046 303.239 490.198 303.638 489.39 304.121C489.001 304.003 488.601 303.899 488.194 303.821C488.307 303.3 488.391 302.785 488.457 302.264Z" fill="black"/>
<path opacity="0.1" d="M443.246 358.617C442.726 359.378 442.268 360.187 441.876 361.034C441.513 361.82 441.204 362.634 440.955 363.471C441.489 362.674 442.09 361.932 442.75 361.256C442.842 360.362 443.008 359.478 443.246 358.617Z" fill="black"/>
<path opacity="0.1" d="M480.193 283.069C480.138 282.11 480.172 281.147 480.294 280.196C479.132 281.443 478.166 282.889 477.434 284.476C477.073 285.259 476.769 286.072 476.524 286.907C477.515 285.388 478.759 284.086 480.193 283.069Z" fill="black"/>
<path opacity="0.1" d="M470.803 340.119C470.685 341.089 470.485 342.044 470.205 342.973C470.673 342.261 471.091 341.512 471.456 340.732C471.848 339.895 472.174 339.023 472.431 338.125C471.941 338.839 471.397 339.506 470.803 340.119Z" fill="black"/>
<path opacity="0.1" d="M461.78 359.549C461.662 360.518 461.462 361.474 461.181 362.402C461.653 361.692 462.074 360.943 462.438 360.161C462.828 359.323 463.154 358.451 463.413 357.555C462.923 358.27 462.376 358.937 461.78 359.549Z" fill="black"/>
<path opacity="0.1" d="M466.291 349.827C466.174 350.797 465.973 351.752 465.693 352.681C466.17 351.983 466.598 351.247 466.973 350.479C467.366 349.642 467.692 348.77 467.949 347.873C467.448 348.574 466.893 349.228 466.291 349.827Z" fill="black"/>
<path opacity="0.1" d="M475.316 330.405C475.198 331.372 474.998 332.325 474.717 333.252C475.187 332.543 475.605 331.796 475.968 331.017C476.365 330.165 476.693 329.278 476.949 328.365C476.462 329.097 475.915 329.779 475.316 330.405Z" fill="black"/>
<path opacity="0.1" d="M445.772 305.834C450.391 304.186 455.753 308.219 457.74 314.845C458.02 315.803 458.22 316.787 458.338 317.784C459.364 318.657 460.26 319.696 460.995 320.866C461.271 319.567 461.689 318.309 462.24 317.119C462.449 316.676 462.677 316.253 462.91 315.816C462.231 314.793 461.426 313.876 460.517 313.093C460.399 312.098 460.199 311.116 459.918 310.161C457.919 303.534 452.558 299.495 447.95 301.15C445.317 302.088 443.498 304.675 442.792 307.945C443.601 306.974 444.628 306.247 445.772 305.834Z" fill="black"/>
<path opacity="0.1" d="M467.195 311.047C467.142 310.09 467.178 309.129 467.303 308.18C466.137 309.425 465.168 310.871 464.436 312.461C464.074 313.241 463.77 314.051 463.527 314.884C464.52 313.368 465.764 312.067 467.195 311.047Z" fill="black"/>
<path opacity="0.1" d="M473.694 297.051C473.641 296.094 473.677 295.134 473.801 294.185C472.634 295.426 471.666 296.87 470.935 298.459C470.574 299.242 470.27 300.054 470.025 300.889C471.016 299.37 472.26 298.068 473.694 297.051Z" fill="black"/>
<path opacity="0.1" d="M457.267 369.263C457.15 370.235 456.949 371.193 456.669 372.124C457.653 370.64 458.407 368.992 458.901 367.244C458.412 367.968 457.865 368.643 457.267 369.263Z" fill="black"/>
</g>
<path opacity="0.1" d="M514.56 243.435C516.669 241.924 518.369 239.828 519.485 237.362C522.423 231.042 521.208 223.934 516.774 221.49C512.339 219.047 506.361 222.194 503.423 228.521C502.259 230.966 501.718 233.706 501.855 236.457C499.764 237.989 498.068 240.079 496.93 242.528C495.792 244.977 495.251 247.703 495.356 250.445C493.246 251.954 491.545 254.051 490.431 256.518C490.071 257.292 489.769 258.096 489.528 258.922C491.09 256.459 493.356 254.627 495.973 253.71C496.271 254.713 496.749 255.643 497.379 256.444C498.009 257.245 498.778 257.902 499.643 258.377C500.508 258.852 501.451 259.136 502.417 259.212C503.383 259.287 504.354 259.153 505.272 258.818C506.156 261.651 506.156 264.722 505.272 267.555C505.74 266.853 506.156 266.113 506.517 265.34C507.678 262.9 508.219 260.167 508.085 257.424C510.179 255.894 511.876 253.804 513.014 251.355C514.152 248.905 514.693 246.178 514.584 243.435H514.56Z" fill="#3F3D56"/>
<path opacity="0.1" d="M585.986 153.754C587.791 152.838 589.534 151.786 591.205 150.607L571.858 135.218L594.598 147.969C599.198 143.99 603.004 139.03 605.782 133.393C608.56 127.757 610.253 121.562 610.755 115.189L572.109 115.619L610.839 108.569C610.438 102.189 608.844 95.9659 606.154 90.2813C603.464 84.5968 599.735 79.5711 595.196 75.5128C590.658 71.4546 585.405 68.4496 579.76 66.6823C574.116 64.9151 568.199 64.423 562.374 65.2362C556.548 66.0494 550.937 68.1507 545.885 71.4112C540.832 74.6716 536.446 79.0223 532.994 84.196C529.542 89.3696 527.098 95.257 525.812 101.497C524.527 107.736 524.426 114.196 525.517 120.479C522.707 121.902 520.047 123.649 517.582 125.692L537.778 156.269L513.53 129.503C508.413 134.975 504.629 141.749 502.522 149.213C500.414 156.677 500.049 164.596 501.46 172.252C494.135 175.975 487.92 181.866 483.524 189.252C479.129 196.639 476.73 205.223 476.603 214.023C476.476 222.823 478.625 231.485 482.805 239.019C486.984 246.552 493.026 252.654 500.24 256.625C507.454 260.597 515.548 262.279 523.598 261.48C531.649 260.68 539.33 257.431 545.764 252.103C552.199 246.775 557.127 239.584 559.985 231.352C562.844 223.119 563.518 214.177 561.93 205.547C570.696 201.104 577.834 193.581 582.197 184.187C586.561 174.793 587.895 164.074 585.986 153.754Z" fill="#FF0000"/>
<path opacity="0.1" d="M505.272 141.818C500.895 151.207 499.556 161.931 501.472 172.252C494.147 175.975 487.932 181.866 483.537 189.252C479.141 196.639 476.742 205.223 476.615 214.023C476.488 222.823 478.637 231.485 482.817 239.019C486.997 246.552 493.039 252.654 500.252 256.625C507.466 260.597 515.56 262.279 523.611 261.48C531.661 260.68 539.342 257.431 545.776 252.103C552.211 246.775 557.139 239.584 559.998 231.352C562.856 223.119 563.53 214.177 561.942 205.547C570.398 201.272 507.439 137.12 505.272 141.818Z" fill="black"/>
<path opacity="0.1" d="M553.828 73.8931C557.361 73.8931 560.225 70.7747 560.225 66.9279C560.225 63.0812 557.361 59.9628 553.828 59.9628C550.295 59.9628 547.431 63.0812 547.431 66.9279C547.431 70.7747 550.295 73.8931 553.828 73.8931Z" fill="#FF0000"/>
<path opacity="0.1" d="M591.193 78.3628C594.726 78.3628 597.59 75.2444 597.59 71.3976C597.59 67.5509 594.726 64.4325 591.193 64.4325C587.66 64.4325 584.796 67.5509 584.796 71.3976C584.796 75.2444 587.66 78.3628 591.193 78.3628Z" fill="#FF0000"/>
<path opacity="0.1" d="M605.603 140.951C609.136 140.951 612 137.833 612 133.986C612 130.139 609.136 127.021 605.603 127.021C602.07 127.021 599.206 130.139 599.206 133.986C599.206 137.833 602.07 140.951 605.603 140.951Z" fill="#FF0000"/>
<path opacity="0.1" d="M586.154 172.207C589.687 172.207 592.551 169.088 592.551 165.241C592.551 161.395 589.687 158.276 586.154 158.276C582.621 158.276 579.757 161.395 579.757 165.241C579.757 169.088 582.621 172.207 586.154 172.207Z" fill="#FF0000"/>
<path opacity="0.1" d="M559.585 237.121C563.118 237.121 565.982 234.003 565.982 230.156C565.982 226.309 563.118 223.191 559.585 223.191C556.052 223.191 553.188 226.309 553.188 230.156C553.188 234.003 556.052 237.121 559.585 237.121Z" fill="#FF0000"/>
<path opacity="0.1" d="M559.585 237.121C563.118 237.121 565.982 234.003 565.982 230.156C565.982 226.309 563.118 223.191 559.585 223.191C556.052 223.191 553.188 226.309 553.188 230.156C553.188 234.003 556.052 237.121 559.585 237.121Z" fill="black"/>
<path opacity="0.1" d="M500.509 163.599C504.042 163.599 506.906 160.481 506.906 156.634C506.906 152.788 504.042 149.669 500.509 149.669C496.976 149.669 494.112 152.788 494.112 156.634C494.112 160.481 496.976 163.599 500.509 163.599Z" fill="#FF0000"/>
<path opacity="0.1" d="M500.509 163.599C504.042 163.599 506.906 160.481 506.906 156.634C506.906 152.788 504.042 149.669 500.509 149.669C496.976 149.669 494.112 152.788 494.112 156.634C494.112 160.481 496.976 163.599 500.509 163.599Z" fill="black"/>
<path opacity="0.1" d="M493.687 271.198C489.432 268.858 488.146 262.232 490.629 256.121C490.497 256.368 490.372 256.622 490.252 256.889C487.314 263.209 488.529 270.311 492.963 272.755C497.397 275.198 503.375 272.051 506.307 265.731C506.433 265.47 506.541 265.203 506.649 264.943C503.603 270.748 497.936 273.543 493.687 271.198Z" fill="black"/>
<path opacity="0.1" d="M487.368 284.802C483.119 282.463 481.826 275.837 484.316 269.719C484.184 269.973 484.052 270.227 483.933 270.487C480.994 276.807 482.209 283.916 486.643 286.353C491.078 288.79 497.056 285.656 499.994 279.329C500.114 279.068 500.228 278.808 500.335 278.541C497.283 284.346 491.622 287.141 487.368 284.802Z" fill="black"/>
<path opacity="0.1" d="M481.048 298.4C476.8 296.061 475.507 289.435 477.996 283.323C477.865 283.571 477.733 283.825 477.613 284.092C474.675 290.412 475.896 297.514 480.33 299.957C484.765 302.401 490.737 299.254 493.675 292.934C493.795 292.673 493.908 292.406 494.016 292.145C490.97 297.951 485.303 300.746 481.048 298.4Z" fill="black"/>
<path opacity="0.1" d="M474.753 312.037C470.499 309.698 469.212 303.072 471.695 296.96C471.564 297.208 471.438 297.462 471.312 297.722C468.38 304.043 469.595 311.151 474.029 313.594C478.464 316.038 484.442 312.891 487.374 306.564C487.5 306.303 487.607 306.043 487.715 305.776C484.651 311.549 478.984 314.344 474.753 312.037Z" fill="black"/>
<path opacity="0.1" d="M468.416 325.603C464.161 323.264 462.875 316.637 465.358 310.526C465.226 310.773 465.101 311.027 464.981 311.294C462.043 317.614 463.258 324.716 467.692 327.16C472.126 329.603 478.104 326.456 481.043 320.136C481.162 319.875 481.276 319.608 481.384 319.348C478.344 325.153 472.665 327.948 468.416 325.603Z" fill="black"/>
<path opacity="0.1" d="M462.097 339.207C457.848 336.868 456.555 330.242 459.045 324.13C458.913 324.378 458.782 324.632 458.662 324.892C455.724 331.212 456.938 338.321 461.379 340.764C465.819 343.208 471.761 340.054 474.753 333.734C474.873 333.473 474.987 333.213 475.094 332.946C472.013 338.751 466.375 341.546 462.097 339.207Z" fill="black"/>
<path opacity="0.1" d="M455.777 352.805C451.528 350.466 450.236 343.84 452.725 337.728C452.594 337.982 452.468 338.23 452.342 338.497C449.41 344.817 450.625 351.919 455.059 354.362C459.493 356.806 465.472 353.659 468.404 347.339C468.529 347.078 468.637 346.811 468.745 346.55C465.699 352.355 460.032 355.151 455.777 352.805Z" fill="black"/>
<path opacity="0.1" d="M449.464 366.41C445.21 364.07 443.923 357.444 446.406 351.333C446.275 351.58 446.149 351.834 446.029 352.095C443.091 358.415 444.306 365.523 448.74 367.967C453.174 370.41 459.153 367.263 462.091 360.936C462.211 360.676 462.318 360.415 462.426 360.148C459.38 365.954 453.713 368.723 449.464 366.41Z" fill="black"/>
<path opacity="0.1" d="M445.311 375.349C441.062 373.003 439.77 366.384 442.259 360.265C442.127 360.52 441.996 360.774 441.876 361.034C438.938 367.354 440.153 374.463 444.587 376.9C449.021 379.336 454.999 376.202 457.938 369.876C458.057 369.615 458.171 369.355 458.279 369.087C455.227 374.893 449.56 377.688 445.311 375.349Z" fill="black"/>
<path opacity="0.1" d="M559.483 314.813C560.142 312.754 560.545 310.609 560.68 308.434C561.119 308.433 561.554 308.333 561.956 308.141C562.359 307.949 562.72 307.668 563.019 307.317C563.317 306.965 563.546 306.551 563.69 306.099C563.835 305.647 563.892 305.167 563.859 304.69C563.825 304.213 563.702 303.748 563.496 303.326C563.29 302.903 563.007 302.531 562.663 302.233C562.319 301.935 561.922 301.717 561.498 301.593C561.073 301.47 560.63 301.443 560.195 301.515C559.484 297.988 558.06 294.678 556.027 291.826C553.994 288.973 551.403 286.65 548.442 285.024C548.825 284.199 548.891 283.243 548.626 282.366C548.361 281.489 547.787 280.762 547.03 280.345C546.273 279.929 545.395 279.857 544.589 280.145C543.783 280.434 543.116 281.059 542.733 281.883C542.595 282.176 542.498 282.49 542.446 282.815C538.935 282.103 535.318 282.313 531.897 283.43C528.476 284.546 525.349 286.535 522.776 289.233C520.833 288.89 518.858 288.827 516.9 289.044L514.308 301.886L514.153 289.506C511.179 290.216 508.369 291.579 505.895 293.511C503.421 295.443 501.335 297.905 499.764 300.744C498.194 303.584 497.171 306.743 496.76 310.028C496.349 313.312 496.557 316.654 497.372 319.848C498.186 323.042 499.591 326.021 501.499 328.604C503.408 331.187 505.78 333.319 508.471 334.87C511.162 336.421 514.115 337.359 517.149 337.625C520.184 337.891 523.237 337.48 526.121 336.418C526.43 337.024 526.899 337.515 527.468 337.826C528.054 338.15 528.717 338.269 529.368 338.168C530.018 338.067 530.624 337.749 531.103 337.259C531.582 336.769 531.911 336.13 532.044 335.429C532.177 334.728 532.109 334 531.848 333.343C532.869 332.58 533.83 331.726 534.72 330.789C539.392 331.616 544.184 330.811 548.41 328.49C552.636 326.169 556.079 322.451 558.244 317.869L546.186 315.66L559.483 314.813Z" fill="#FF0000"/>
<g opacity="0.1">
<path opacity="0.1" d="M540.854 321.048C536.402 314.65 533.673 307.072 530.532 299.801C529.27 296.816 527.858 293.91 526.301 291.096L523.943 288.105C523.548 288.47 523.153 288.848 522.746 289.246C520.803 288.903 518.828 288.84 516.87 289.057L514.279 301.899L514.123 289.519C511.149 290.229 508.339 291.592 505.865 293.524C503.391 295.456 501.305 297.918 499.735 300.757C498.164 303.597 497.142 306.756 496.73 310.041C496.319 313.325 496.527 316.667 497.342 319.861C498.157 323.055 499.561 326.034 501.47 328.617C503.378 331.2 505.75 333.332 508.441 334.883C511.132 336.434 514.085 337.372 517.12 337.638C520.154 337.904 523.207 337.493 526.091 336.431C526.4 337.038 526.869 337.528 527.438 337.839C528.024 338.163 528.687 338.282 529.338 338.181C529.989 338.08 530.595 337.762 531.074 337.272C531.552 336.782 531.881 336.143 532.014 335.442C532.147 334.741 532.079 334.013 531.818 333.356C532.839 332.593 533.8 331.739 534.691 330.802C539.264 331.608 543.955 330.852 548.119 328.639C545.34 326.548 542.887 323.986 540.854 321.048Z" fill="black"/>
</g>
<path opacity="0.1" d="M462.013 293.552C462.26 293.021 462.377 292.43 462.354 291.835C462.331 291.241 462.168 290.662 461.881 290.156C461.594 289.649 461.193 289.231 460.715 288.942C460.237 288.652 459.699 288.501 459.152 288.503C458.245 283.267 455.786 278.499 452.151 274.931C452.737 272.443 452.959 269.871 452.809 267.308L441.05 265.125L452.468 264.343C452.263 263.176 451.981 262.026 451.624 260.903C452.069 260.57 452.431 260.122 452.678 259.6C452.966 258.977 453.075 258.275 452.993 257.583C452.91 256.892 452.639 256.243 452.215 255.721C451.79 255.199 451.231 254.828 450.611 254.655C449.99 254.482 449.337 254.516 448.734 254.752C445.71 250.1 441.285 246.748 436.227 245.279C431.169 243.81 425.798 244.317 421.048 246.711C416.298 249.105 412.468 253.236 410.224 258.386C407.98 263.535 407.464 269.378 408.766 274.898C408.073 275.217 407.509 275.795 407.174 276.527C406.88 277.158 406.77 277.872 406.859 278.572C406.947 279.273 407.229 279.928 407.668 280.45C408.107 280.971 408.681 281.335 409.315 281.492C409.948 281.649 410.61 281.592 411.213 281.329C412.361 283.428 413.791 285.328 415.456 286.965C414.244 292.111 414.61 297.547 416.497 302.446L432.266 297.99L418.203 306.043C420.689 310.345 424.349 313.693 428.669 315.619C432.989 317.546 437.754 317.954 442.298 316.786C446.841 315.619 450.936 312.935 454.01 309.109C457.083 305.283 458.982 300.507 459.44 295.449C459.981 295.398 460.502 295.197 460.953 294.865C461.403 294.533 461.768 294.081 462.013 293.552Z" fill="#FF0000"/>
<path opacity="0.1" d="M462.013 293.552C462.259 293.021 462.377 292.43 462.354 291.835C462.331 291.241 462.168 290.662 461.881 290.156C461.594 289.649 461.192 289.231 460.715 288.942C460.237 288.652 459.699 288.501 459.152 288.503C458.245 283.267 455.786 278.499 452.151 274.931C452.247 274.52 452.33 274.117 452.402 273.706C451.985 274.035 451.598 274.409 451.247 274.82C449.123 277.355 448.034 280.762 445.933 283.323C443.456 286.346 439.746 287.923 436.041 288.347C432.337 288.77 428.609 288.151 424.953 287.376C421.925 286.724 418.855 285.968 415.785 286.288C415.486 286.288 415.187 286.359 414.911 286.411C415.091 286.6 415.27 286.789 415.456 286.972C414.244 292.118 414.61 297.554 416.497 302.453L432.265 297.99L418.203 306.043C420.689 310.345 424.348 313.693 428.669 315.619C432.989 317.546 437.754 317.954 442.297 316.786C446.841 315.619 450.936 312.935 454.009 309.109C457.083 305.283 458.982 300.507 459.44 295.449C459.981 295.398 460.502 295.197 460.953 294.865C461.403 294.533 461.768 294.081 462.013 293.552Z" fill="#281212"/>
</g>
<g opacity="0.1">
<path opacity="0.1" d="M53.5524 333.102C54.3184 330.567 57.4242 329.401 60.4881 330.496C60.9288 330.653 61.3554 330.854 61.7627 331.095C61.9602 331.037 62.1637 330.984 62.3611 330.945C62.193 330.218 62.1284 329.466 62.1696 328.717C61.1179 327.943 60.2652 326.889 59.6923 325.655C59.1195 324.421 58.8455 323.049 58.8963 321.667C57.8354 320.907 56.9801 319.852 56.4189 318.611C55.8341 317.382 55.5594 316.006 55.623 314.624C54.5627 313.86 53.7078 312.803 53.1455 311.562C51.6734 308.382 52.2718 304.805 54.5159 303.567C56.76 302.329 59.764 303.925 61.2421 307.105C61.8259 308.336 62.0985 309.715 62.032 311.099C63.0866 311.869 63.9416 312.921 64.5148 314.154C65.0881 315.388 65.3603 316.761 65.3053 318.142C66.3596 318.914 67.2142 319.968 67.7873 321.202C68.3604 322.436 68.6329 323.81 68.5787 325.192C69.6332 325.962 70.4882 327.014 71.0615 328.248C71.6347 329.481 71.907 330.854 71.852 332.235C72.9144 332.999 73.7715 334.055 74.3354 335.298C74.6045 335.899 74.8055 336.533 74.9338 337.187C75.3025 336.597 75.7526 336.071 76.2683 335.63C76.3298 335.128 76.434 334.632 76.5795 334.151C77.5908 330.815 80.2897 328.782 82.6175 329.59C84.9454 330.398 86.0105 333.806 85.0112 337.142C84.5981 338.574 83.8048 339.842 82.7312 340.784C82.669 341.284 82.5649 341.777 82.42 342.256C81.9289 344.025 80.8347 345.521 79.3621 346.439C79.4776 346.866 79.5616 347.302 79.6135 347.742C80.2313 348.388 80.7433 349.144 81.1275 349.977C81.519 350.809 81.7742 351.709 81.8815 352.636C82.5016 353.281 83.0157 354.037 83.4014 354.871C83.7922 355.702 84.0473 356.602 84.1554 357.529C84.777 358.175 85.2913 358.933 85.6754 359.77C87.1535 362.95 86.5431 366.533 84.311 367.758C82.0789 368.983 79.0629 367.406 77.5848 364.22C77.1951 363.388 76.94 362.489 76.8308 361.562C75.584 360.26 74.782 358.534 74.5568 356.669C73.3101 355.367 72.508 353.641 72.2829 351.776C71.6632 351.13 71.1491 350.374 70.7629 349.541C70.3759 348.707 70.121 347.808 70.0089 346.882C69.3911 346.237 68.879 345.481 68.4949 344.648C68.1034 343.816 67.8482 342.916 67.7409 341.989C67.3556 341.598 67.0123 341.161 66.7176 340.686C65.4864 340.96 64.2105 340.875 63.0194 340.439C62.577 340.278 62.1485 340.075 61.7388 339.833C60.4079 340.217 59.0019 340.163 57.6995 339.676C54.6655 338.575 52.7925 335.637 53.5524 333.102Z" fill="#3F3D56"/>
<g opacity="0.1">
<path opacity="0.1" d="M58.9561 323.114C59.2733 323.454 59.6223 323.758 59.9973 324.019C59.9466 324.955 60.0604 325.893 60.3324 326.782C60.092 326.426 59.8798 326.049 59.6981 325.655C59.3238 324.858 59.0731 323.999 58.9561 323.114Z" fill="black"/>
<path opacity="0.1" d="M55.6826 316.077C56.0015 316.413 56.3503 316.715 56.7239 316.976C56.6736 317.914 56.7873 318.853 57.059 319.745C56.3341 318.662 55.8618 317.403 55.6826 316.077Z" fill="black"/>
<path opacity="0.1" d="M63.1211 313.451C63.1496 312.968 63.1335 312.484 63.0732 312.005C63.6583 312.634 64.1454 313.362 64.5154 314.161C64.6961 314.556 64.8481 314.966 64.9702 315.386C64.4715 314.62 63.8441 313.963 63.1211 313.451Z" fill="black"/>
<path opacity="0.1" d="M83.8858 356.102C83.6241 355.702 83.3275 355.331 83.0001 354.994C82.9455 354.553 82.8574 354.117 82.7368 353.691C82.9965 354.074 83.2267 354.479 83.425 354.903C83.6066 355.289 83.7606 355.69 83.8858 356.102Z" fill="black"/>
<path opacity="0.1" d="M81.594 351.209C81.3324 350.809 81.0358 350.438 80.7084 350.101C80.6595 349.66 80.5754 349.224 80.457 348.798C80.95 349.525 81.3301 350.335 81.582 351.196L81.594 351.209Z" fill="black"/>
<path opacity="0.1" d="M62.2352 330.177C62.5494 330.514 62.8965 330.814 63.2705 331.069C63.2258 331.818 63.2904 332.57 63.462 333.297C63.2603 333.336 63.0606 333.386 62.8636 333.447C62.4537 333.207 62.0252 333.006 61.583 332.848C58.5191 331.753 55.4133 332.92 54.6533 335.454C54.4628 336.085 54.4278 336.759 54.5516 337.409C54.0593 336.845 53.7091 336.152 53.5351 335.398C53.361 334.643 53.369 333.852 53.5582 333.102C54.3242 330.567 57.43 329.401 60.4939 330.496C60.9345 330.653 61.3612 330.854 61.7685 331.095C61.966 331.037 62.1694 330.984 62.3669 330.945C62.3093 330.692 62.2654 330.435 62.2352 330.177Z" fill="black"/>
<path opacity="0.1" d="M85.0107 358.558C85.2718 358.942 85.502 359.35 85.6989 359.777C85.8816 360.171 86.0357 360.581 86.1597 361.002C85.8981 360.6 85.6015 360.227 85.274 359.887C85.2207 359.437 85.1327 358.993 85.0107 358.558Z" fill="black"/>
<path opacity="0.1" d="M66.3941 320.507C66.4227 320.025 66.4066 319.54 66.3462 319.061C66.9326 319.689 67.4199 320.417 67.7884 321.218C67.969 321.61 68.1211 322.018 68.2432 322.436C67.7443 321.672 67.1169 321.017 66.3941 320.507Z" fill="black"/>
<path opacity="0.1" d="M71.1277 349.241C71.1837 349.728 71.2819 350.208 71.4209 350.674C70.9223 349.93 70.542 349.1 70.2959 348.218C70.5445 348.585 70.8229 348.928 71.1277 349.241Z" fill="black"/>
<path opacity="0.1" d="M75.6696 359.027C75.7299 359.514 75.8301 359.994 75.9688 360.461C75.7283 360.105 75.5161 359.728 75.3344 359.334C75.1376 358.915 74.9735 358.479 74.8438 358.031C75.0944 358.386 75.3705 358.719 75.6696 359.027Z" fill="black"/>
<path opacity="0.1" d="M73.4016 354.134C73.4576 354.621 73.5558 355.101 73.6948 355.568C73.4565 355.211 73.2444 354.834 73.0605 354.44C72.863 354.022 72.6988 353.586 72.5698 353.137C72.8196 353.496 73.0979 353.829 73.4016 354.134Z" fill="black"/>
<path opacity="0.1" d="M68.8536 344.341C68.909 344.83 69.0072 345.313 69.1469 345.781C68.92 345.424 68.7198 345.047 68.5484 344.654C68.3478 344.237 68.1816 343.8 68.0518 343.351C68.2908 343.707 68.5592 344.038 68.8536 344.341Z" fill="black"/>
<path opacity="0.1" d="M83.7365 331.968C81.4086 331.134 78.7098 333.167 77.7044 336.529C77.5589 337.011 77.4548 337.506 77.3933 338.008C76.8757 338.447 76.4235 338.97 76.0528 339.559C75.9139 338.904 75.7029 338.269 75.4245 337.669C75.3227 337.448 75.209 337.233 75.0894 337.018C75.429 336.504 75.8317 336.044 76.2862 335.65C76.3477 335.147 76.4519 334.652 76.5974 334.171C77.6087 330.835 80.3075 328.802 82.6354 329.61C83.3029 329.889 83.8928 330.351 84.3479 330.951C84.803 331.552 85.1077 332.27 85.2325 333.037C84.8258 332.547 84.3108 332.18 83.7365 331.968Z" fill="black"/>
<path opacity="0.1" d="M72.9409 334.594C72.9694 334.111 72.9534 333.627 72.8931 333.148C73.4795 333.775 73.9667 334.504 74.3352 335.304C74.5159 335.699 74.668 336.109 74.79 336.529C74.2929 335.761 73.6652 335.105 72.9409 334.594Z" fill="black"/>
<path opacity="0.1" d="M69.6675 327.544C69.6959 327.062 69.6798 326.577 69.6196 326.098C70.2033 326.728 70.6902 327.456 71.0618 328.254C71.2425 328.649 71.3945 329.059 71.5166 329.479C71.0179 328.713 70.3905 328.056 69.6675 327.544Z" fill="black"/>
<path opacity="0.1" d="M77.9435 363.921C78.0009 364.41 78.1011 364.892 78.2427 365.361C78.0035 365.002 77.7914 364.623 77.6084 364.227C77.4116 363.808 77.2474 363.372 77.1177 362.924C77.3683 363.279 77.6444 363.613 77.9435 363.921Z" fill="black"/>
</g>
<path opacity="0.1" d="M49.0819 300.531C48.0209 299.77 47.1657 298.715 46.6044 297.475C45.1264 294.289 45.7367 290.712 47.9688 289.48C50.2009 288.249 53.2169 289.832 54.695 293.018C55.2797 294.247 55.5524 295.624 55.4849 297.006C56.5392 297.777 57.3938 298.831 57.9669 300.065C58.54 301.3 58.8125 302.674 58.7583 304.056C59.8199 304.817 60.6769 305.871 61.2417 307.111C61.4213 307.502 61.5733 307.907 61.6965 308.323C60.9038 307.092 59.7626 306.176 58.4471 305.717C58.3006 306.226 58.0623 306.698 57.7463 307.106C57.4303 307.513 57.0428 307.848 56.6066 308.091C56.1703 308.333 55.6941 308.479 55.2055 308.519C54.717 308.559 54.2261 308.492 53.7615 308.323C53.3178 309.749 53.3178 311.295 53.7615 312.721C53.5367 312.367 53.3366 311.994 53.1631 311.607C52.5783 310.378 52.3036 309.002 52.3672 307.62C51.3142 306.846 50.4605 305.793 49.8876 304.559C49.3146 303.325 49.0413 301.951 49.0939 300.57L49.0819 300.531Z" fill="#3F3D56"/>
<path opacity="0.1" d="M13.1052 255.352C12.1974 254.89 11.3197 254.361 10.4781 253.768L20.2203 246.015L8.76665 252.433C6.45085 250.428 4.53516 247.929 3.13682 245.091C1.73847 242.252 0.886886 239.132 0.634174 235.922L20.1066 236.144L0.592285 232.586C0.760311 229.345 1.53959 226.176 2.88156 223.277C4.22354 220.378 6.09946 217.811 8.39245 215.735C10.6854 213.66 13.3464 212.121 16.2094 211.215C19.0725 210.308 22.0764 210.053 25.034 210.465C27.9915 210.878 30.8393 211.949 33.4 213.613C35.9607 215.276 38.1794 217.495 39.9178 220.133C41.6563 222.771 42.8772 225.77 43.5046 228.944C44.132 232.117 44.1524 235.398 43.5645 238.581C44.9781 239.293 46.3181 240.166 47.562 241.187L37.3889 256.59L49.6026 243.115C52.1798 245.872 54.0854 249.284 55.147 253.044C56.2085 256.804 56.3926 260.793 55.6825 264.649C59.3771 266.523 62.513 269.491 64.7313 273.214C66.9497 276.937 68.161 281.264 68.2268 285.702C68.2926 290.139 67.2103 294.507 65.1035 298.305C62.9967 302.104 59.9505 305.181 56.3133 307.184C52.6761 309.186 48.5947 310.034 44.5358 309.63C40.4769 309.226 36.6044 307.586 33.361 304.899C30.1177 302.211 27.6345 298.584 26.1954 294.432C24.7563 290.28 24.4193 285.771 25.2231 281.421C20.8133 279.183 17.2216 275.397 15.0242 270.671C12.8267 265.945 12.1509 260.553 13.1052 255.358V255.352Z" fill="#FF0000"/>
<path opacity="0.1" d="M53.7678 249.344C55.9748 254.074 56.6496 259.476 55.6827 264.675C59.3774 266.549 62.5132 269.517 64.7316 273.24C66.9499 276.963 68.1613 281.29 68.2271 285.728C68.2929 290.165 67.2105 294.533 65.1037 298.332C62.9969 302.13 59.9507 305.207 56.3135 307.21C52.6763 309.213 48.5949 310.06 44.5361 309.656C40.4772 309.252 36.6046 307.613 33.3613 304.925C30.118 302.237 27.6348 298.61 26.1956 294.458C24.7565 290.306 24.4196 285.797 25.2233 281.447C20.9566 279.29 52.6727 246.979 53.7678 249.344Z" fill="black"/>
<path opacity="0.1" d="M29.3046 215.125C31.0859 215.125 32.53 213.552 32.53 211.613C32.53 209.673 31.0859 208.101 29.3046 208.101C27.5232 208.101 26.0791 209.673 26.0791 211.613C26.0791 213.552 27.5232 215.125 29.3046 215.125Z" fill="#FF0000"/>
<path opacity="0.1" d="M10.4784 217.379C12.2598 217.379 13.7039 215.807 13.7039 213.867C13.7039 211.927 12.2598 210.355 10.4784 210.355C8.69702 210.355 7.25293 211.927 7.25293 213.867C7.25293 215.807 8.69702 217.379 10.4784 217.379Z" fill="#FF0000"/>
<path opacity="0.1" d="M3.22546 248.908C5.00684 248.908 6.45092 247.335 6.45092 245.396C6.45092 243.456 5.00684 241.884 3.22546 241.884C1.44409 241.884 0 243.456 0 245.396C0 247.335 1.44409 248.908 3.22546 248.908Z" fill="#FF0000"/>
<path opacity="0.1" d="M13.0214 264.656C14.8027 264.656 16.2468 263.084 16.2468 261.144C16.2468 259.204 14.8027 257.632 13.0214 257.632C11.24 257.632 9.7959 259.204 9.7959 261.144C9.7959 263.084 11.24 264.656 13.0214 264.656Z" fill="#FF0000"/>
<path opacity="0.1" d="M26.4022 297.358C28.1836 297.358 29.6277 295.785 29.6277 293.846C29.6277 291.906 28.1836 290.334 26.4022 290.334C24.6208 290.334 23.1768 291.906 23.1768 293.846C23.1768 295.785 24.6208 297.358 26.4022 297.358Z" fill="#FF0000"/>
<path opacity="0.1" d="M26.4022 297.358C28.1836 297.358 29.6277 295.785 29.6277 293.846C29.6277 291.906 28.1836 290.334 26.4022 290.334C24.6208 290.334 23.1768 291.906 23.1768 293.846C23.1768 295.785 24.6208 297.358 26.4022 297.358Z" fill="black"/>
<path opacity="0.1" d="M56.1615 260.317C57.9429 260.317 59.387 258.744 59.387 256.805C59.387 254.865 57.9429 253.293 56.1615 253.293C54.3801 253.293 52.936 254.865 52.936 256.805C52.936 258.744 54.3801 260.317 56.1615 260.317Z" fill="#FF0000"/>
<path opacity="0.1" d="M56.1615 260.317C57.9429 260.317 59.387 258.744 59.387 256.805C59.387 254.865 57.9429 253.293 56.1615 253.293C54.3801 253.293 52.936 254.865 52.936 256.805C52.936 258.744 54.3801 260.317 56.1615 260.317Z" fill="black"/>
<path opacity="0.1" d="M59.6021 314.52C61.7444 313.34 62.3907 310.004 61.14 306.922C61.2058 307.053 61.2717 307.177 61.3315 307.307C62.8096 310.493 62.1992 314.07 59.9611 315.301C57.7231 316.533 54.719 314.95 53.2409 311.764C53.1811 311.633 53.1212 311.503 53.0674 311.366C54.6053 314.292 57.4598 315.699 59.6021 314.52Z" fill="black"/>
<path opacity="0.1" d="M62.7797 321.374C64.922 320.195 65.5743 316.852 64.3236 313.777C64.3894 313.901 64.4553 314.031 64.5151 314.161C65.9932 317.347 65.3828 320.924 63.1447 322.156C60.9067 323.387 57.9026 321.804 56.4245 318.618C56.3587 318.488 56.3048 318.351 56.251 318.22C57.7889 321.159 60.6493 322.553 62.7797 321.374Z" fill="black"/>
<path opacity="0.1" d="M65.9633 328.222C68.1056 327.043 68.7579 323.707 67.5012 320.625C67.573 320.755 67.6329 320.879 67.6987 321.016C69.1768 324.195 68.5604 327.779 66.3283 329.004C64.0962 330.229 61.0862 328.652 59.6081 325.466C59.5423 325.335 59.4884 325.205 59.4346 325.068C60.9665 327.994 63.821 329.401 65.9633 328.222Z" fill="black"/>
<path opacity="0.1" d="M69.1469 335.076C71.2892 333.897 71.9415 330.561 70.6848 327.479C70.7506 327.603 70.8165 327.733 70.8763 327.863C72.3604 331.05 71.744 334.627 69.5119 335.858C67.2798 337.09 64.2638 335.506 62.7857 332.32C62.7259 332.19 62.672 332.053 62.6182 331.923C64.1501 334.842 67.0046 336.256 69.1469 335.076Z" fill="black"/>
<path opacity="0.1" d="M72.3306 341.924C74.4729 340.745 75.1192 337.409 73.8685 334.333C73.9343 334.457 74.0002 334.588 74.06 334.718C75.5381 337.904 74.9277 341.481 72.6956 342.712C70.4635 343.944 67.4475 342.354 65.9694 339.175C65.9096 339.038 65.8557 338.907 65.7959 338.777C67.3338 341.696 70.1883 343.103 72.3306 341.924Z" fill="black"/>
<path opacity="0.1" d="M75.5142 348.778C77.6565 347.599 78.3028 344.263 77.0521 341.181C77.118 341.312 77.1838 341.435 77.2436 341.566C78.7217 344.752 78.1113 348.329 75.8792 349.56C73.6471 350.792 70.6311 349.208 69.153 346.022C69.0932 345.892 69.0333 345.762 68.9795 345.625C70.5174 348.524 73.3719 349.958 75.5142 348.778Z" fill="black"/>
<path opacity="0.1" d="M78.6978 355.633C80.8341 354.453 81.4864 351.111 80.2357 348.036C80.3015 348.159 80.3674 348.29 80.4272 348.42C81.9053 351.606 81.2949 355.183 79.0568 356.415C76.8188 357.646 73.8147 356.056 72.3366 352.877C72.2768 352.74 72.2169 352.61 72.1631 352.479C73.701 355.398 76.5555 356.812 78.6978 355.633Z" fill="black"/>
<path opacity="0.1" d="M81.8754 362.481C84.0177 361.301 84.67 357.965 83.4133 354.884C83.4851 355.014 83.545 355.138 83.6108 355.274C85.0889 358.454 84.4725 362.038 82.2404 363.263C80.0083 364.487 76.9983 362.911 75.5202 359.725C75.4544 359.594 75.4005 359.464 75.3467 359.327C76.8846 362.253 79.7331 363.66 81.8754 362.481Z" fill="black"/>
<path opacity="0.1" d="M83.9878 366.983C86.1302 365.804 86.7764 362.468 85.5258 359.386C85.5916 359.516 85.6574 359.64 85.7172 359.777C87.1953 362.956 86.585 366.54 84.3529 367.765C82.1208 368.99 79.1047 367.413 77.6267 364.227C77.5668 364.097 77.507 363.966 77.4531 363.829C78.9731 366.768 81.8275 368.162 83.9878 366.983Z" fill="black"/>
<path opacity="0.1" d="M26.4559 336.49C26.1235 335.454 25.9222 334.373 25.8575 333.278C25.6362 333.277 25.4175 333.227 25.2149 333.13C25.0124 333.033 24.8304 332.891 24.6803 332.714C24.5302 332.537 24.4153 332.328 24.3426 332.101C24.27 331.873 24.2412 331.632 24.2581 331.391C24.275 331.151 24.3372 330.917 24.4409 330.704C24.5445 330.491 24.6874 330.304 24.8605 330.154C25.0336 330.004 25.2332 329.894 25.447 329.832C25.6608 329.77 25.884 329.756 26.1028 329.792C26.4619 328.016 27.1792 326.35 28.2028 324.913C29.2264 323.476 30.5307 322.305 32.0212 321.485C31.8283 321.069 31.795 320.587 31.9286 320.145C32.0621 319.703 32.3516 319.336 32.7333 319.126C33.115 318.916 33.5576 318.88 33.9639 319.025C34.3702 319.171 34.7067 319.486 34.8995 319.901C34.9696 320.049 35.0181 320.207 35.0432 320.371C36.8139 320.017 38.6366 320.128 40.36 320.694C42.0835 321.261 43.658 322.267 44.9529 323.628C45.942 323.452 46.9484 323.421 47.945 323.537L49.2496 330.001L49.2795 323.765C50.7632 324.139 52.1622 324.835 53.392 325.813C54.6217 326.791 55.6569 328.03 56.4351 329.455C57.2133 330.881 57.7184 332.463 57.9199 334.106C58.1214 335.75 58.0151 337.421 57.6076 339.018C57.2 340.616 56.4995 342.107 55.5484 343.402C54.5973 344.697 53.4152 345.769 52.0733 346.553C50.7315 347.337 49.2578 347.817 47.7409 347.965C46.2241 348.112 44.6955 347.923 43.2474 347.41C43.0899 347.713 42.855 347.96 42.5712 348.12C42.2755 348.283 41.941 348.343 41.613 348.291C41.2851 348.24 40.9796 348.08 40.7379 347.833C40.4963 347.586 40.3301 347.265 40.262 346.912C40.1939 346.559 40.2271 346.191 40.3571 345.859C39.844 345.469 39.3616 345.034 38.9149 344.556C36.5611 344.972 34.1469 344.565 32.0185 343.394C29.89 342.224 28.1565 340.35 27.0663 338.041L33.1402 336.927L26.4559 336.49Z" fill="#FF0000"/>
<g opacity="0.1">
<path opacity="0.1" d="M35.8392 339.631C38.0833 336.373 39.4596 332.594 41.0394 328.932C41.6721 327.425 42.3834 325.959 43.1698 324.541L44.3666 323.035C44.5701 323.224 44.7676 323.413 44.965 323.609C45.9541 323.433 46.9605 323.402 47.9571 323.518L49.2617 329.981L49.2796 323.765C50.7634 324.139 52.1623 324.835 53.3921 325.813C54.6219 326.791 55.6571 328.03 56.4352 329.455C57.2134 330.881 57.7185 332.463 57.92 334.106C58.1215 335.75 58.0153 337.421 57.6077 339.018C57.2001 340.616 56.4997 342.107 55.5485 343.402C54.5974 344.697 53.4153 345.769 52.0735 346.553C50.7317 347.337 49.2579 347.817 47.7411 347.965C46.2242 348.112 44.6957 347.923 43.2476 347.41C43.0901 347.713 42.8552 347.96 42.5714 348.12C42.2756 348.283 41.9411 348.343 41.6132 348.291C41.2852 348.24 40.9797 348.08 40.7381 347.833C40.4964 347.586 40.3302 347.265 40.2621 346.912C40.194 346.559 40.2272 346.191 40.3572 345.859C39.8441 345.469 39.3617 345.034 38.9151 344.556C36.6099 344.959 34.2469 344.579 32.147 343.468C33.5594 342.414 34.8062 341.118 35.8392 339.631Z" fill="black"/>
</g>
<path opacity="0.1" d="M75.5561 325.779C75.4604 325.573 75.4029 325.349 75.3869 325.12C75.3709 324.89 75.3968 324.66 75.4629 324.441C75.5291 324.223 75.6343 324.02 75.7725 323.846C75.9107 323.672 76.0792 323.529 76.2683 323.426C76.4941 323.3 76.7446 323.236 76.9983 323.237C77.4548 320.599 78.6929 318.196 80.523 316.396C80.2271 315.144 80.116 313.849 80.1939 312.558L86.1122 311.477L80.3614 311.079C80.4656 310.491 80.6096 309.912 80.7923 309.346C80.5663 309.182 80.3829 308.958 80.2597 308.695C80.1158 308.381 80.0614 308.027 80.1034 307.679C80.1454 307.332 80.282 307.005 80.4956 306.743C80.7091 306.48 80.9899 306.293 81.3019 306.205C81.6139 306.118 81.9428 306.134 82.2464 306.251C83.3033 304.614 84.7156 303.287 86.3575 302.388C88.2915 301.319 90.4674 300.881 92.6245 301.125C94.7815 301.369 96.8282 302.285 98.5191 303.763C100.21 305.242 101.473 307.22 102.158 309.461C102.842 311.701 102.918 314.109 102.377 316.396C102.658 316.527 102.899 316.743 103.072 317.018C103.245 317.293 103.342 317.616 103.352 317.949C103.362 318.282 103.285 318.612 103.129 318.899C102.973 319.185 102.746 319.418 102.473 319.569C102.268 319.682 102.044 319.746 101.815 319.757C101.586 319.769 101.357 319.727 101.144 319.634C100.567 320.688 99.8467 321.642 99.0081 322.462C99.6214 325.06 99.4386 327.806 98.4874 330.281L90.5704 328.013L97.6497 332.073C96.5868 333.919 95.092 335.425 93.3185 336.435C91.5451 337.446 89.5567 337.924 87.5573 337.822C85.558 337.72 83.6195 337.041 81.9407 335.854C80.2618 334.668 78.9031 333.016 78.0037 331.069C77.3775 329.714 76.984 328.246 76.8427 326.736C76.571 326.71 76.3101 326.607 76.0849 326.44C75.8597 326.272 75.6776 326.044 75.5561 325.779Z" fill="#FF0000"/>
<path opacity="0.1" d="M75.5561 325.779C75.4604 325.573 75.4029 325.349 75.3869 325.12C75.3709 324.89 75.3968 324.66 75.4629 324.441C75.5291 324.223 75.6343 324.02 75.7725 323.846C75.9107 323.672 76.0792 323.529 76.2683 323.426C76.4941 323.3 76.7446 323.236 76.9983 323.237C77.4548 320.599 78.6929 318.196 80.523 316.396C80.4751 316.194 80.4332 315.986 80.3973 315.784C80.612 315.95 80.8123 316.138 80.9957 316.344C82.0669 317.647 82.6174 319.335 83.6707 320.625C84.9903 322.107 86.7645 323.009 88.6555 323.159C90.5285 323.3 92.4103 323.135 94.2387 322.671C95.7466 322.248 97.3022 322.061 98.8585 322.117L99.3013 322.182L99.026 322.462C99.6393 325.06 99.4565 327.806 98.5054 330.281L90.5704 328.013L97.6497 332.073C96.5868 333.919 95.092 335.425 93.3185 336.435C91.5451 337.446 89.5567 337.924 87.5573 337.822C85.558 337.72 83.6195 337.041 81.9407 335.854C80.2618 334.668 78.9031 333.016 78.0037 331.069C77.3775 329.714 76.984 328.246 76.8427 326.736C76.571 326.71 76.3101 326.607 76.0849 326.44C75.8597 326.272 75.6776 326.044 75.5561 325.779Z" fill="black"/>
</g>
<path opacity="0.1" d="M207.261 33.8223C204.895 33.3334 202.449 33.6237 200.236 34.6563C198.908 35.3006 197.471 35.6335 196.017 35.6335C194.563 35.6335 193.126 35.3006 191.798 34.6563C190.229 33.9073 188.529 33.5386 186.816 33.5757C185.103 33.6129 183.417 34.0549 181.877 34.8713C180.997 35.3774 180.017 35.6434 179.022 35.6467C175.001 35.6467 171.656 31.2357 170.961 25.4173C171.763 24.7773 172.446 23.9768 172.972 23.0586C175.33 18.9212 178.956 16.2629 183.079 16.2629C187.202 16.2629 190.793 18.8691 193.151 22.9804C193.855 24.2151 194.839 25.2317 196.009 25.9323C197.179 26.6329 198.494 26.9941 199.829 26.981H199.937C203.108 26.9614 205.879 29.7566 207.261 33.8223Z" fill="#FF0000"/>
<path opacity="0.1" d="M219.481 15.5787L212.982 20.068L216.926 12.2493C215.808 11.279 214.424 10.7425 212.994 10.7246H212.892C212.442 10.7306 211.991 10.6936 211.546 10.6139L209.338 12.1385L210.283 10.2685C208.727 9.67893 207.38 8.57395 206.43 7.10849L202.474 9.79942L204.963 4.86713C202.66 1.85042 199.548 0 196.131 0C192.032 0 188.351 2.65835 186.018 6.79574C185.319 8.03155 184.333 9.04417 183.159 9.73078C181.985 10.4174 180.665 10.7535 179.333 10.7051H179.136C174.612 10.7051 170.938 16.2889 170.938 23.1889C170.938 30.0889 174.612 35.6662 179.136 35.6662C180.131 35.6629 181.11 35.3969 181.99 34.8909C183.531 34.0738 185.217 33.6319 186.93 33.5959C188.643 33.5599 190.343 33.9306 191.912 34.6824C193.24 35.3246 194.677 35.6565 196.131 35.6565C197.584 35.6565 199.021 35.3246 200.35 34.6824C201.906 33.9466 203.59 33.5844 205.286 33.6204C206.983 33.6563 208.653 34.0897 210.182 34.8909C211.055 35.3834 212.023 35.6424 213.006 35.6467C217.536 35.6467 221.204 30.0628 221.204 23.1694C221.22 20.5223 220.628 17.9129 219.481 15.5787Z" fill="#FF0000"/>
<path opacity="0.1" d="M72.0194 124.089C68.6402 123.393 65.1473 123.806 61.9839 125.275C60.0856 126.191 58.0312 126.662 55.9547 126.656C53.8782 126.651 51.826 126.169 49.9318 125.242C47.6905 124.172 45.2624 123.646 42.8157 123.698C40.3689 123.751 37.9619 124.383 35.7614 125.549C34.5028 126.27 33.1027 126.65 31.6802 126.656C25.9354 126.656 21.154 120.356 20.1606 112.042C21.3086 111.131 22.284 109.987 23.033 108.673C26.4021 102.764 31.6203 98.965 37.4788 98.965C43.3373 98.965 48.4897 102.718 51.8408 108.562C52.8479 110.334 54.2591 111.791 55.937 112.792C57.6148 113.794 59.5022 114.305 61.4154 114.277H61.565C66.101 114.27 70.0626 118.264 72.0194 124.089Z" fill="#FF0000"/>
<path opacity="0.1" d="M89.4929 97.9942L80.2055 104.405L85.8426 93.2443C84.245 91.8559 82.2674 91.0877 80.2234 91.0616H80.0738C79.4285 91.0719 78.7837 91.0196 78.1469 90.9052L75.0112 93.114L76.3636 90.4426C74.1321 89.5936 72.2049 87.997 70.8582 85.8817L65.2211 89.7911L68.7698 82.6891C65.4725 78.3823 61.0322 75.7435 56.1492 75.7435C50.2907 75.7435 45.0725 79.5356 41.7034 85.4452C40.7055 87.2185 39.2936 88.672 37.6116 89.6575C35.9296 90.643 34.0377 91.1253 32.1287 91.0551H31.8116C25.3427 91.0551 20.1006 99.0367 20.1006 108.888C20.1006 118.74 25.3427 126.721 31.8116 126.721C33.235 126.717 34.636 126.335 35.8928 125.607C38.0938 124.442 40.501 123.812 42.9478 123.76C45.3945 123.709 47.8224 124.236 50.0633 125.307C51.9574 126.234 54.0096 126.716 56.0861 126.721C58.1627 126.727 60.217 126.256 62.1154 125.34C64.3397 124.289 66.7457 123.771 69.1701 123.822C71.5945 123.872 73.9805 124.49 76.1662 125.633C77.4111 126.343 78.7944 126.716 80.1995 126.721C86.6684 126.721 91.9105 118.733 91.9105 108.888C91.9556 105.094 91.1243 101.348 89.4929 97.9942Z" fill="#EF0000"/>
<path opacity="0.1" d="M447.597 59.2331C449.963 58.7445 452.409 59.0348 454.623 60.0671C455.949 60.7115 457.386 61.0446 458.838 61.0446C460.291 61.0446 461.728 60.7115 463.054 60.0671C464.624 59.318 466.324 58.9493 468.037 58.9865C469.75 59.0236 471.435 59.4657 472.976 60.2821C473.856 60.7873 474.835 61.0534 475.83 61.0574C479.852 61.0574 483.203 56.6464 483.897 50.828C483.094 50.1897 482.411 49.3889 481.886 48.4693C479.541 44.3189 475.872 41.641 471.761 41.641C467.65 41.641 464.054 44.2472 461.696 48.3586C460.993 49.5988 460.007 50.6204 458.835 51.3247C457.663 52.0289 456.344 52.392 455.006 52.3787H454.904C451.72 52.3722 448.944 55.1673 447.597 59.2331Z" fill="#FF0000"/>
<path opacity="0.1" d="M435.342 40.9894L441.84 45.4656L437.891 37.647C439.01 36.6776 440.393 36.1412 441.822 36.1223H441.93C442.381 36.128 442.832 36.0909 443.277 36.0116L445.479 37.5362L444.533 35.6662C446.1 35.0865 447.461 33.9857 448.423 32.5192L452.367 35.2427L449.871 30.3104C452.181 27.2937 455.257 25.4433 458.71 25.4433C462.809 25.4433 466.489 28.1017 468.823 32.239C469.521 33.4753 470.507 34.4883 471.681 35.175C472.855 35.8616 474.175 36.1975 475.507 36.1484H475.723C480.253 36.1484 483.921 41.7322 483.921 48.6322C483.921 55.5322 480.253 61.1095 475.723 61.1095C474.728 61.1047 473.749 60.8387 472.868 60.3342C471.328 59.5171 469.642 59.0752 467.929 59.0392C466.215 59.0032 464.515 59.3739 462.947 60.1257C461.619 60.7678 460.183 61.0996 458.731 61.0996C457.278 61.0996 455.842 60.7678 454.515 60.1257C452.957 59.3898 451.273 59.0275 449.575 59.0635C447.877 59.0994 446.207 59.5328 444.677 60.3342C443.804 60.8274 442.836 61.0865 441.852 61.09C437.328 61.09 433.654 55.5061 433.654 48.6127C433.622 45.9579 434.202 43.3369 435.342 40.9894Z" fill="#FF0000"/>
<path opacity="0.1" d="M368.403 506.182C406.41 506.182 437.221 500.347 437.221 493.15C437.221 485.954 406.41 480.119 368.403 480.119C330.396 480.119 299.585 485.954 299.585 493.15C299.585 500.347 330.396 506.182 368.403 506.182Z" fill="#FF0000"/>
<path d="M332.384 431.253L225.752 429.761L226.07 426.783L231.222 377.662H324.868L331.756 426.783L332.282 430.51L332.384 431.253Z" fill="#D0D2D5"/>
<path opacity="0.1" d="M332.282 430.51H279.071L225.752 429.761L226.07 426.783H331.756L332.282 430.51Z" fill="black"/>
<path d="M349.475 427.532H207.979V431.253H349.475V427.532Z" fill="#D0D2D5"/>
<path d="M484.472 82.637C484.479 80.0696 483.551 77.6038 481.891 75.7811C480.23 73.9584 477.973 72.9278 475.615 72.9157H80.469C79.3004 72.9217 78.1444 73.1782 77.0668 73.6707C75.9893 74.1631 75.0115 74.8818 74.189 75.7857C73.3666 76.6896 72.7158 77.761 72.2737 78.9388C71.8316 80.1166 71.6069 81.3777 71.6124 82.65V343.436H484.472V82.637Z" fill="#3F3D56"/>
<path d="M71.6123 340.829V371.374C71.6123 373.932 72.5454 376.385 74.2063 378.193C75.8672 380.002 78.1199 381.017 80.4689 381.017H475.615C477.964 381.017 480.216 380.002 481.877 378.193C483.538 376.385 484.471 373.932 484.471 371.374V340.829H71.6123Z" fill="#D0D2D5"/>
<path d="M469.433 89.2698H88.7031V323.707H469.433V89.2698Z" fill="white"/>
<path d="M280.095 369.426C281.493 369.428 282.873 369.083 284.13 368.418C285.388 367.754 286.49 366.786 287.353 365.589C287.616 365.224 287.856 364.841 288.071 364.442L283.003 363.51L288.478 363.549C289.003 362.306 289.29 360.959 289.319 359.591C289.349 358.223 289.122 356.863 288.652 355.594L281.309 359.738L288.083 354.317C287.447 353.126 286.593 352.091 285.574 351.275C284.555 350.459 283.392 349.88 282.159 349.573C280.925 349.267 279.647 349.24 278.404 349.495C277.16 349.749 275.978 350.279 274.931 351.052C273.884 351.825 272.993 352.824 272.316 353.987C271.638 355.15 271.187 356.452 270.991 357.813C270.795 359.174 270.858 360.564 271.177 361.897C271.495 363.23 272.062 364.478 272.842 365.563C273.702 366.764 274.802 367.736 276.059 368.405C277.316 369.075 278.696 369.424 280.095 369.426Z" fill="#FF0000"/>
<path opacity="0.1" d="M289.322 381.011L331.864 427.532L325.335 381.011H289.322Z" fill="black"/>
<path opacity="0.1" d="M469.547 89.2959H88.4038V102.992H469.547V89.2959Z" fill="#444053"/>
<path opacity="0.3" d="M335.227 91.6806H221.085C220.893 91.6806 220.738 91.8498 220.738 92.0585V99.6361C220.738 99.8448 220.893 100.014 221.085 100.014H335.227C335.418 100.014 335.574 99.8448 335.574 99.6361V92.0585C335.574 91.8498 335.418 91.6806 335.227 91.6806Z" fill="#FF0000"/>
<path d="M332.163 96.7106H331.882L331.78 96.6129C332.128 96.1573 332.319 95.5832 332.318 94.9905C332.315 94.5039 332.179 94.0295 331.928 93.6269C331.677 93.2243 331.322 92.9117 330.908 92.7284C330.494 92.5452 330.04 92.4996 329.602 92.5974C329.164 92.6951 328.763 92.9319 328.449 93.2777C328.134 93.6236 327.921 94.0631 327.836 94.5407C327.751 95.0183 327.797 95.5127 327.97 95.9615C328.143 96.4103 328.434 96.7933 328.806 97.0623C329.178 97.3313 329.616 97.4742 330.062 97.4729C330.607 97.4708 331.135 97.261 331.552 96.88L331.654 96.9777V97.284L333.408 99.193L333.928 98.6197L332.163 96.7106ZM330.062 96.7106C329.75 96.7119 329.444 96.6121 329.183 96.4239C328.922 96.2357 328.719 95.9675 328.599 95.6533C328.478 95.3391 328.446 94.993 328.506 94.6589C328.566 94.3248 328.716 94.0177 328.937 93.7765C329.158 93.5353 329.439 93.3708 329.746 93.3039C330.053 93.237 330.371 93.2707 330.66 93.4007C330.949 93.5307 331.196 93.7512 331.37 94.0342C331.543 94.3172 331.636 94.65 331.636 94.9905C331.638 95.2163 331.598 95.4402 331.52 95.6493C331.441 95.8583 331.326 96.0483 331.179 96.2083C331.033 96.3683 330.859 96.4951 330.667 96.5813C330.475 96.6675 330.27 96.7115 330.062 96.7106Z" fill="#3F3D56"/>
<path opacity="0.8" d="M95.256 98.6522C96.5285 98.6522 97.5599 97.5291 97.5599 96.1437C97.5599 94.7583 96.5285 93.6353 95.256 93.6353C93.9836 93.6353 92.9521 94.7583 92.9521 96.1437C92.9521 97.5291 93.9836 98.6522 95.256 98.6522Z" fill="#FA5959"/>
<path opacity="0.8" d="M101.593 98.6522C102.865 98.6522 103.897 97.5291 103.897 96.1437C103.897 94.7583 102.865 93.6353 101.593 93.6353C100.321 93.6353 99.2891 94.7583 99.2891 96.1437C99.2891 97.5291 100.321 98.6522 101.593 98.6522Z" fill="#FED253"/>
<path opacity="0.8" d="M107.936 98.6522C109.209 98.6522 110.24 97.5291 110.24 96.1437C110.24 94.7583 109.209 93.6353 107.936 93.6353C106.664 93.6353 105.632 94.7583 105.632 96.1437C105.632 97.5291 106.664 98.6522 107.936 98.6522Z" fill="#8CCF4D"/>
<path d="M299.238 189.864C294.014 182.306 286.444 177.536 278.018 177.536C269.592 177.536 262.023 182.306 256.798 189.864C257.953 192.948 259.662 195.75 261.825 198.106C264.498 201.015 267.79 203.158 271.408 204.346C275.026 205.533 278.858 205.728 282.562 204.912C286.266 204.096 289.727 202.295 292.637 199.669C295.546 197.043 297.814 193.675 299.238 189.864Z" fill="#FF0000"/>
<path d="M301.705 193.358C301.437 193.616 301.148 193.835 300.844 194.009C297.565 202.834 290.774 209.588 282.98 210.155V252C288.876 251.531 293.597 247.578 297.565 241.41C297.908 241.755 298.162 242.068 298.397 242.361C298.727 242.776 298.957 243.312 299.059 243.9C299.16 244.489 299.13 245.104 298.97 245.669C298.754 246.448 298.698 247.288 298.808 248.105C298.917 248.922 299.188 249.685 299.592 250.317C299.995 250.948 300.518 251.425 301.107 251.699C301.695 251.973 302.327 252.034 302.939 251.875C303.55 251.716 304.119 251.344 304.587 250.796C305.055 250.248 305.405 249.544 305.601 248.757C305.797 247.969 305.832 247.127 305.703 246.315C305.574 245.504 305.285 244.753 304.865 244.139C304.739 243.955 304.602 243.785 304.454 243.631C304.37 243.528 304.276 243.438 304.175 243.364C303.637 240.772 302.36 238.434 300.286 236.291C302.621 230.98 304.049 225.049 304.469 218.921C304.772 218.925 305.074 218.951 305.374 218.999C305.782 219.072 306.167 219.293 306.487 219.637C306.808 219.982 307.05 220.437 307.189 220.953C307.415 221.753 307.801 222.455 308.306 222.984C308.81 223.513 309.413 223.848 310.051 223.953C310.688 224.057 311.334 223.928 311.92 223.579C312.506 223.23 313.009 222.673 313.374 221.971C313.74 221.268 313.954 220.446 313.993 219.593C314.033 218.74 313.896 217.889 313.598 217.132C313.3 216.375 312.852 215.741 312.303 215.299C311.754 214.856 311.124 214.622 310.482 214.622C310.34 214.626 310.198 214.639 310.056 214.661C309.531 214.158 308.948 213.771 308.329 213.515C307.122 213.012 305.866 212.743 304.601 212.714C304.476 208.369 303.859 204.074 302.771 199.975C303.562 199.377 304.307 198.679 304.997 197.891C305.67 197.091 306.221 196.127 306.622 195.051C306.834 194.507 307.158 194.055 307.556 193.749C307.863 193.503 308.143 193.203 308.388 192.856C308.823 192.232 309.122 191.462 309.252 190.628C309.382 189.795 309.339 188.93 309.127 188.126C308.915 187.323 308.542 186.612 308.049 186.07C307.556 185.528 306.961 185.176 306.328 185.051C305.696 184.926 305.049 185.033 304.459 185.361C303.869 185.689 303.357 186.225 302.979 186.912C302.601 187.598 302.371 188.409 302.314 189.257C302.256 190.105 302.374 190.958 302.654 191.723C302.435 192.357 302.11 192.916 301.705 193.358Z" fill="#FF0000"/>
<path d="M252.987 193.636C253.314 193.895 253.668 194.114 254.04 194.288C258.049 203.116 266.355 209.873 275.888 210.44V252.302C268.677 251.833 262.902 247.878 258.049 241.708C257.63 242.053 257.319 242.366 257.032 242.659C256.629 243.075 256.347 243.61 256.223 244.199C256.098 244.788 256.136 245.404 256.332 245.969C256.595 246.748 256.663 247.589 256.53 248.406C256.396 249.223 256.065 249.986 255.571 250.618C255.077 251.25 254.437 251.727 253.718 252.001C252.999 252.275 252.225 252.336 251.477 252.177C250.729 252.018 250.033 251.646 249.461 251.098C248.889 250.549 248.461 249.845 248.221 249.058C247.981 248.27 247.938 247.427 248.096 246.615C248.254 245.803 248.608 245.052 249.121 244.438C249.275 244.254 249.443 244.084 249.623 243.93C249.727 243.827 249.842 243.737 249.965 243.663C250.623 241.07 252.185 238.73 254.722 236.587C251.866 231.273 250.12 225.341 249.605 219.21C249.235 219.214 248.866 219.24 248.498 219.288C247.999 219.361 247.528 219.582 247.137 219.927C246.745 220.271 246.448 220.727 246.278 221.243C246.002 222.043 245.53 222.746 244.913 223.275C244.296 223.804 243.558 224.139 242.779 224.244C242 224.348 241.209 224.219 240.492 223.87C239.776 223.52 239.16 222.964 238.713 222.261C238.266 221.558 238.005 220.735 237.956 219.882C237.908 219.029 238.075 218.177 238.44 217.42C238.804 216.663 239.352 216.029 240.024 215.586C240.696 215.143 241.466 214.91 242.251 214.91C242.425 214.913 242.599 214.926 242.772 214.949C243.414 214.445 244.128 214.058 244.884 213.802C246.361 213.299 247.897 213.029 249.444 213.001C249.596 208.654 250.351 204.357 251.682 200.256C250.715 199.658 249.803 198.959 248.959 198.171C248.136 197.371 247.462 196.407 246.972 195.33C246.713 194.786 246.317 194.334 245.829 194.027C245.455 193.782 245.112 193.481 244.812 193.135C244.28 192.51 243.915 191.739 243.756 190.906C243.597 190.072 243.649 189.206 243.909 188.403C244.168 187.599 244.624 186.888 245.227 186.346C245.83 185.804 246.558 185.451 247.331 185.326C248.105 185.201 248.896 185.308 249.617 185.636C250.339 185.964 250.965 186.5 251.428 187.187C251.89 187.874 252.172 188.686 252.242 189.534C252.312 190.382 252.168 191.235 251.826 192.001C252.094 192.635 252.491 193.194 252.987 193.636Z" fill="#FF0000"/>
<path d="M407.521 485.553C407.174 484.953 406.734 484.422 406.223 483.983C403.608 481.292 402.393 477.344 401.747 473.473C401.1 469.603 400.915 465.655 399.879 461.869C399.316 459.928 398.612 458.039 397.773 456.22C397.175 454.826 396.421 452.096 395.326 451.119C395.111 450.916 394.851 450.779 394.572 450.721C394.054 449.524 393.317 448.455 392.405 447.581C390.694 445.893 388.605 444.551 387.462 442.368C387.148 441.611 386.761 440.892 386.307 440.224C385.535 439.299 384.315 438.921 383.603 437.944C382.675 436.68 382.884 434.869 383.004 433.259C383.124 431.65 383.004 429.721 381.724 428.874C380.958 428.36 379.97 428.412 379.174 427.956C377.977 427.304 377.505 425.662 377.529 424.196C377.553 422.73 377.971 421.303 378.079 419.837C378.414 415.172 375.59 410.533 376.679 406.011C377.092 404.298 378.037 402.812 378.737 401.216C378.982 400.685 379.182 400.131 379.336 399.561C381.203 400.367 383.165 400.882 385.164 401.092C381.867 393.039 382.705 383.682 381.167 375.03L381.364 374.736C382.918 372.506 383.8 369.807 383.89 367.009C383.89 363.79 382.507 360.78 381.885 357.627C381.352 354.949 381.376 352.147 380.688 349.515C380.211 347.879 379.577 346.302 378.797 344.81C378.051 343.303 377.267 341.82 376.445 340.36C375.679 337.598 374.912 334.835 374.142 332.073C373.064 328.196 371.957 324.254 369.863 320.905C369.097 319.68 368.864 317.191 367.685 316.448C366.727 315.909 365.641 315.702 364.573 315.855C362.909 314.839 361.449 313.373 361.24 311.366C361.219 310.928 361.259 310.488 361.359 310.063H361.563C364.196 309.802 365.53 307.274 366.901 305.059C369.115 301.475 368.271 296.628 366.901 292.549C366.561 291.262 365.946 290.081 365.106 289.102C363.185 287.148 360.145 287.578 357.667 286.633C356.835 286.32 356.057 285.845 355.208 285.623C353.562 285.206 351.839 285.792 350.331 286.62C348.823 287.447 347.416 288.516 345.837 289.167C344.257 289.819 342.306 290.334 341.917 292.099C341.808 292.694 341.853 293.31 342.049 293.878C342.412 295.011 343.051 296.016 343.898 296.784C343.225 298.294 342.861 299.945 342.831 301.623C342.801 303.301 343.106 304.966 343.724 306.503C344.343 308.041 345.26 309.414 346.413 310.528C347.566 311.642 348.927 312.47 350.402 312.956C350.857 313.751 351.282 314.559 351.671 315.386C352.365 316.846 352.952 318.566 352.712 320.129C352.279 320.63 351.879 321.164 351.515 321.726C349.798 324.332 348.823 327.388 347.925 330.437C346.719 334.331 345.754 338.307 345.035 342.341C343.574 345.723 341.791 348.954 340.732 352.505C338.836 352.508 336.947 352.232 335.119 351.684L330.068 350.44C328.309 350.003 326.478 349.534 325.101 348.27C324.371 347.619 323.803 346.752 323.061 346.107C322.319 345.462 320.829 344.706 320.015 345.24C319.866 345.339 319.728 345.455 319.602 345.586C318.86 343.95 318.154 342.328 317.292 340.745C316.053 338.529 314.21 336.503 311.876 336.08C310.45 335.83 308.991 336.199 307.813 337.109C306.449 338.165 305.593 340.367 306.616 341.852C306.872 342.183 307.15 342.492 307.448 342.778C308.141 343.647 308.76 344.582 309.297 345.573C311.226 348.521 314.112 350.561 317.37 351.28L317.16 351.932C316.736 353.287 315.832 354.923 316.059 356.33L338.524 364.703C339.965 365.339 341.494 365.707 343.048 365.791C343.654 365.785 344.257 365.698 344.843 365.53V366.781V366.833C344.903 375.427 343.646 383.963 343.413 392.55C343.371 394.12 343.413 395.808 344.323 397.033C345.34 398.375 347.147 398.642 348.721 398.336C349.1 398.266 349.471 398.175 349.834 398.062C350.366 400.224 350.75 402.426 350.983 404.649L352.467 416.286C352.658 417.478 352.736 418.687 352.7 419.896C352.527 422.626 351.204 425.069 350.247 427.591C349.289 430.112 348.721 433.129 349.978 435.488C350.372 436.217 350.917 436.836 351.27 437.592C351.719 438.762 351.923 440.026 351.869 441.293C351.96 444.803 352.048 448.317 352.132 451.835C351.871 451.789 351.603 451.846 351.378 451.998C350.133 453.054 350.271 458.077 350.181 459.634C350.085 462.241 350.181 464.899 350.049 467.531C349.894 471.079 349.37 474.596 348.487 478.015C348.272 479.126 347.8 480.16 347.117 481.018C346.417 481.681 345.582 482.153 344.682 482.393C341.7 483.41 338.583 483.872 335.46 483.762C334.197 483.716 332.881 483.586 331.708 484.107C330.535 484.628 329.59 486.062 330.014 487.365C330.379 488.459 331.486 488.98 332.486 489.391C334.769 490.266 336.972 491.37 339.068 492.688C339.875 493.286 340.726 493.811 341.612 494.258C342.461 494.59 343.339 494.826 344.233 494.962L354.843 496.956C357.015 497.359 359.63 497.607 361.012 495.652C361.76 494.597 361.868 493.163 361.832 491.821C361.772 489.215 361.294 486.563 361.605 483.957C361.841 482.416 362.214 480.904 362.718 479.442C363.775 476.023 364.836 472.607 365.901 469.193C366.967 465.766 368.044 462.306 368.457 458.709C368.606 457.406 368.594 455.92 367.679 455.106C367.447 454.899 367.178 454.748 366.889 454.663C366.853 451.522 366.476 448.375 366.637 445.235C366.679 444.453 366.751 443.671 366.811 442.883C367.366 443.457 367.861 444.095 368.289 444.785C369.312 446.532 369.689 448.838 371.251 449.998C372.58 450.988 374.549 450.936 375.482 452.369C375.782 452.92 376.008 453.515 376.152 454.135C376.694 455.671 377.507 457.077 378.546 458.273C378.902 459.703 379.398 461.088 380.024 462.403C380.906 464.432 381.783 466.454 382.657 468.469C383.555 470.645 384.554 472.77 385.649 474.835C386.485 476.135 387.159 477.551 387.654 479.044C388.498 482.263 387.121 485.794 384.943 488.166C382.765 490.538 379.892 491.899 377.062 493.17C376.764 493.28 376.49 493.458 376.26 493.691C376.015 494.008 375.885 494.411 375.895 494.825C375.895 496.33 377.032 497.62 378.336 498.083C379.67 498.473 381.067 498.528 382.424 498.246C390.071 497.236 397.695 495.203 404.457 491.157C405.469 490.635 406.365 489.881 407.084 488.948C407.432 488.478 407.656 487.914 407.733 487.316C407.81 486.719 407.737 486.109 407.521 485.553Z" fill="url(#paint0_linear_99_466)"/>
<path d="M375.201 339.442C376.478 341.574 377.675 343.759 378.792 345.996C379.574 347.476 380.21 349.042 380.689 350.668C381.383 353.274 381.365 356.056 381.885 358.715C382.484 361.842 383.884 364.826 383.884 368.032C383.793 370.809 382.91 373.487 381.359 375.694C379.812 377.882 378.041 379.872 376.081 381.623C371.562 368.877 369.037 355.397 368.613 341.742C368.553 339.852 368.541 337.904 369.175 336.138C369.564 335.031 371.431 331.994 372.634 333.187C373.071 333.623 373.184 335.591 373.454 336.249C373.958 337.362 374.542 338.429 375.201 339.442Z" fill="#2F2E41"/>
<path opacity="0.1" d="M375.201 339.442C376.478 341.574 377.675 343.759 378.792 345.996C379.574 347.476 380.21 349.042 380.689 350.668C381.383 353.274 381.365 356.056 381.885 358.715C382.484 361.842 383.884 364.826 383.884 368.032C383.793 370.809 382.91 373.487 381.359 375.694C379.812 377.882 378.041 379.872 376.081 381.623C371.562 368.877 369.037 355.397 368.613 341.742C368.553 339.852 368.541 337.904 369.175 336.138C369.564 335.031 371.431 331.994 372.634 333.187C373.071 333.623 373.184 335.591 373.454 336.249C373.958 337.362 374.542 338.429 375.201 339.442Z" fill="black"/>
<path d="M217.434 250.55C212.701 255.697 212.132 257.964 209.29 258.987C206.447 260.01 196.221 265.777 199.434 272.168L208.075 278.384L208.327 278.567L209.649 282.893L196.58 308.226C196.58 308.226 175.037 297.501 172.924 313.366C170.812 329.232 172.152 333.565 171.584 342.035C171.015 350.505 171.769 352.955 169.872 352.955C167.975 352.955 167.227 347.391 167.227 347.391C167.227 347.391 167.108 347.137 166.898 346.661C164.08 340.282 144.948 293.455 175.593 261.268C175.593 261.268 189.788 260.251 193.205 242.529C195.562 230.28 203.808 231.335 209.29 233.831C211.072 234.591 212.732 235.653 214.209 236.978C215.538 238.348 216.721 239.878 217.734 241.539C219.295 244.223 220.145 247.592 217.434 250.55Z" fill="#D0D2D5"/>
<path opacity="0.1" d="M208.327 278.567L209.649 282.893L196.58 308.226C196.58 308.226 175.037 297.501 172.924 313.366C170.812 329.232 172.152 333.565 171.584 342.035C171.015 350.505 171.769 352.955 169.872 352.955C167.975 352.955 167.227 347.391 167.227 347.391C167.227 347.391 167.108 347.137 166.898 346.661C165.947 338.738 161.123 292.393 178.609 294.856C178.609 294.856 192.798 302.075 195.066 299.195C196.861 296.915 204.832 283.799 208.075 278.417L208.327 278.567Z" fill="black"/>
<path opacity="0.1" d="M217.734 241.5L209.092 252.192C209.092 252.192 199.057 266.813 196.975 266.194C196.351 266.046 195.716 265.965 195.078 265.953C194.383 265.895 193.717 265.624 193.159 265.171C192.6 264.718 192.17 264.102 191.919 263.394C191.669 262.686 191.608 261.915 191.743 261.171C191.878 260.427 192.205 259.74 192.684 259.189C196.107 255.28 202.414 247.859 202.827 246.21C203.24 244.562 207.255 237.336 209.266 233.798C211.048 234.559 212.708 235.621 214.185 236.945C215.522 238.312 216.713 239.84 217.734 241.5Z" fill="black"/>
<path d="M462.222 395.326C460.756 398.518 453.246 410.494 449.961 415.726L448.423 418.189C448.423 418.189 447.825 422.515 438.017 417.153C428.209 411.791 197.765 305.919 197.765 305.919L196.203 300.811L207.573 282.274L460.146 388.523C460.146 388.523 464.119 391.201 462.222 395.326Z" fill="#454B69"/>
<path opacity="0.1" d="M449.961 415.726L448.423 418.189C448.423 418.189 447.825 422.515 438.017 417.153C428.209 411.791 197.765 305.919 197.765 305.919L196.203 300.811L449.961 415.726Z" fill="black"/>
<path d="M310.961 346.57C308.621 346.153 306.024 346.355 304.205 348.01C303.105 349.023 302.41 350.462 302.266 352.023C302.11 353.828 303.074 355.972 304.737 356.108C305.138 356.113 305.538 356.085 305.934 356.024C306.985 356.019 308.034 356.115 309.07 356.31C311.108 356.519 313.162 356.193 315.06 355.358C316.959 354.524 318.645 353.206 319.979 351.515C321.409 349.56 319.524 348.713 317.837 348.322C315.527 347.788 313.271 346.974 310.961 346.57Z" fill="#FBBEBE"/>
<path d="M350.983 405.412L352.467 416.892C352.656 418.077 352.732 419.28 352.694 420.482C352.521 423.186 351.198 425.61 350.247 428.112C349.295 430.614 348.715 433.611 349.977 435.931C350.366 436.654 350.911 437.273 351.264 438.022C351.713 439.181 351.917 440.434 351.862 441.69L352.269 457.979C356.889 458.323 361.525 458.294 366.141 457.895C366.321 457.904 366.499 457.844 366.643 457.725C366.765 457.557 366.827 457.346 366.817 457.132C367.02 453.321 366.41 449.503 366.607 445.691C366.679 444.297 366.859 442.909 366.883 441.508C366.954 435.833 364.381 430.275 365.159 424.665C365.404 423.25 365.723 421.851 366.117 420.476C368.576 410.702 368.056 400.434 367.511 390.341C367.52 390.179 367.478 390.018 367.391 389.885C367.303 389.789 367.191 389.723 367.068 389.696C364.45 388.841 361.682 388.685 358.996 389.24C356.311 389.796 353.788 391.047 351.641 392.889C350.989 393.462 349.343 394.016 348.912 394.7C348.314 395.651 349.098 396.603 349.445 397.613C350.214 400.145 350.729 402.759 350.983 405.412Z" fill="#3F3D56"/>
<path opacity="0.1" d="M350.983 405.412L352.467 416.892C352.656 418.077 352.732 419.28 352.694 420.482C352.521 423.186 351.198 425.61 350.247 428.112C349.295 430.614 348.715 433.611 349.977 435.931C350.366 436.654 350.911 437.273 351.264 438.022C351.713 439.181 351.917 440.434 351.862 441.69L352.269 457.979C356.889 458.323 361.525 458.294 366.141 457.895C366.321 457.904 366.499 457.844 366.643 457.725C366.765 457.557 366.827 457.346 366.817 457.132C367.02 453.321 366.41 449.503 366.607 445.691C366.679 444.297 366.859 442.909 366.883 441.508C366.954 435.833 364.381 430.275 365.159 424.665C365.404 423.25 365.723 421.851 366.117 420.476C368.576 410.702 368.056 400.434 367.511 390.341C367.52 390.179 367.478 390.018 367.391 389.885C367.303 389.789 367.191 389.723 367.068 389.696C364.45 388.841 361.682 388.685 358.996 389.24C356.311 389.796 353.788 391.047 351.641 392.889C350.989 393.462 349.343 394.016 348.912 394.7C348.314 395.651 349.098 396.603 349.445 397.613C350.214 400.145 350.729 402.759 350.983 405.412Z" fill="black"/>
<path d="M378.731 401.952C378.031 403.535 377.092 405.008 376.673 406.708C375.584 411.198 378.402 415.83 378.067 420.43C377.959 421.883 377.547 423.297 377.517 424.75C377.487 426.203 377.977 427.819 379.162 428.49C379.958 428.933 380.957 428.887 381.705 429.396C382.968 430.236 383.112 432.145 382.986 433.748C382.86 435.351 382.651 437.143 383.585 438.394C384.297 439.364 385.517 439.742 386.283 440.661C386.739 441.32 387.126 442.033 387.438 442.785C388.581 444.961 390.67 446.29 392.381 447.998C394.093 449.705 395.541 452.207 394.775 454.572C394.212 456.305 392.633 457.373 391.113 458.188C388.339 459.68 385.412 460.807 382.394 461.543C382.07 461.65 381.727 461.67 381.394 461.602C381.057 461.468 380.757 461.244 380.521 460.951C378.755 459.068 376.93 457.093 376.116 454.559C375.972 453.944 375.746 453.356 375.446 452.813C374.513 451.386 372.544 451.438 371.215 450.454C369.659 449.301 369.282 447.014 368.265 445.287C367.248 443.56 365.758 442.531 364.675 441.013C362.843 438.485 362.395 435.11 361.084 432.223C360.528 430.998 359.815 429.852 359.373 428.575C358.926 427.044 358.65 425.46 358.553 423.857C357.709 416.247 355.561 408.585 356.913 401.053C357.212 399.398 357.673 397.795 357.865 396.088C358.194 393.136 357.673 390.113 358.074 387.168C358.084 386.798 358.17 386.436 358.327 386.108C358.483 385.779 358.706 385.494 358.978 385.272C359.301 385.114 359.653 385.036 360.007 385.044C363.554 384.838 367.111 384.925 370.647 385.305C372.442 385.494 374.453 385.891 375.53 387.487C376.445 388.856 376.398 390.687 376.691 392.348C377.056 394.394 378.007 395.508 379.007 397.111C380.006 398.714 379.467 400.297 378.731 401.952Z" fill="#3F3D56"/>
<path d="M364.926 454.898C365.872 454.898 366.919 454.832 367.649 455.484C368.559 456.298 368.571 457.79 368.427 459.061C368.008 462.632 366.937 466.065 365.866 469.486L362.682 479.657C362.178 481.108 361.805 482.609 361.569 484.139C361.258 486.746 361.737 489.352 361.796 491.958C361.796 493.261 361.719 494.708 360.971 495.757C359.618 497.653 356.979 497.431 354.807 497.06L344.209 495.105C343.315 494.975 342.436 494.742 341.588 494.408C340.703 493.963 339.853 493.443 339.045 492.851C336.947 491.546 334.744 490.455 332.462 489.593C331.469 489.189 330.356 488.674 329.997 487.586C329.572 486.283 330.517 484.85 331.69 484.328C332.863 483.807 334.174 483.937 335.442 483.977C338.562 484.085 341.676 483.627 344.658 482.621C345.556 482.381 346.389 481.913 347.087 481.253C347.797 480.384 348.281 479.325 348.488 478.184C349.391 474.788 349.929 471.29 350.091 467.759C350.217 465.153 350.133 462.547 350.229 459.941C350.289 458.396 350.151 453.425 351.396 452.363C352.347 451.568 356.261 453.764 357.548 454.083C359.967 454.687 362.445 454.96 364.926 454.898Z" fill="#2F2E41"/>
<path d="M399.837 462.143C400.873 465.876 401.034 469.825 401.704 473.662C402.375 477.5 403.56 481.416 406.175 484.087C406.684 484.527 407.122 485.056 407.473 485.651C407.694 486.209 407.769 486.822 407.69 487.424C407.611 488.025 407.38 488.591 407.024 489.059C406.302 489.985 405.406 490.734 404.397 491.254C397.641 495.268 390.035 497.294 382.37 498.298C381.015 498.574 379.621 498.518 378.288 498.135C376.984 497.653 375.829 496.376 375.853 494.877C375.84 494.466 375.968 494.064 376.212 493.75C376.445 493.518 376.72 493.343 377.02 493.235C379.844 491.971 382.711 490.596 384.895 488.264C387.079 485.931 388.45 482.4 387.606 479.233C387.106 477.75 386.428 476.346 385.589 475.057C384.495 473.008 383.496 470.901 382.597 468.743L379.964 462.729C379.192 460.97 378.414 459.159 378.282 457.217C381.59 457.378 384.893 456.802 387.989 455.523C389.434 454.881 390.78 454.003 391.98 452.917C392.998 451.992 393.925 450.265 395.295 451.47C396.397 452.435 397.091 455.152 397.737 456.526C398.577 458.333 399.279 460.211 399.837 462.143Z" fill="#2F2E41"/>
<path d="M361.252 312.813C361.515 315.314 363.741 316.963 365.865 317.953L352.419 322.625C353.287 320.814 352.586 318.598 351.725 316.761C351.023 315.306 350.223 313.91 349.331 312.584C349.199 312.383 349.05 312.128 349.146 311.894C349.231 311.741 349.365 311.627 349.523 311.575C352.287 310.232 355.136 308.845 358.158 308.356C359.031 308.219 360.683 307.841 361.335 308.805C361.988 309.77 361.126 311.659 361.252 312.813Z" fill="#FBBEBE"/>
<path opacity="0.1" d="M361.252 312.813C361.515 315.314 363.741 316.963 365.865 317.953L352.419 322.625C353.287 320.814 352.586 318.598 351.725 316.761C351.023 315.306 350.223 313.91 349.331 312.584C349.199 312.383 349.05 312.128 349.146 311.894C349.231 311.741 349.365 311.627 349.523 311.575C352.287 310.232 355.136 308.845 358.158 308.356C359.031 308.219 360.683 307.841 361.335 308.805C361.988 309.77 361.126 311.659 361.252 312.813Z" fill="black"/>
<path d="M353.437 314.839C359.26 314.839 363.981 309.699 363.981 303.358C363.981 297.018 359.26 291.878 353.437 291.878C347.613 291.878 342.893 297.018 342.893 303.358C342.893 309.699 347.613 314.839 353.437 314.839Z" fill="#FBBEBE"/>
<path d="M344.299 397.834C345.322 399.17 347.123 399.43 348.697 399.137C352.377 398.486 355.387 395.534 358.99 394.472C363.406 393.169 368.08 394.844 372.251 396.896C376.422 398.948 380.569 401.457 385.129 401.809C381.006 391.801 383.363 379.76 379.42 369.667C378.456 367.198 377.11 364.82 376.894 362.148C376.625 358.832 378.145 355.633 378.379 352.336C378.594 349.397 377.78 346.472 377.002 343.67C376.041 340.23 375.079 336.79 374.118 333.35C373.041 329.499 371.934 325.583 369.845 322.273C369.073 321.055 368.84 318.585 367.667 317.849C365.106 316.24 361.222 318.266 358.445 318.377C355.669 318.488 353.137 320.638 351.516 323.068C349.798 325.635 348.823 328.691 347.925 331.714C346.496 336.216 345.429 340.844 344.736 345.547C344.646 346.25 344.568 346.954 344.508 347.664C343.91 354.356 344.784 361.086 344.831 367.81V367.856C344.891 376.385 343.635 384.862 343.401 393.384C343.377 394.941 343.413 396.642 344.299 397.834Z" fill="#2F2E41"/>
<path opacity="0.1" d="M344.849 367.817C346.914 367.25 348.781 365.797 350.385 364.207C351.774 362.854 353.007 361.322 354.059 359.646C355.383 357.393 356.446 354.971 357.224 352.434C359.44 345.649 360.848 338.583 361.413 331.408C361.569 329.453 361.617 327.355 360.546 325.805C359.944 324.965 359.099 324.371 358.149 324.12C357.198 323.869 356.197 323.976 355.31 324.423C353.897 325.173 352.982 326.691 352.132 328.144C350.45 331.024 348.757 333.942 347.674 337.148C347.195 338.569 346.842 340.028 346.375 341.455C345.9 342.862 345.353 344.239 344.736 345.579C344.646 346.283 344.568 346.987 344.508 347.697C343.952 354.388 344.801 361.093 344.849 367.817Z" fill="black"/>
<path d="M360.516 324.547C361.587 326.098 361.539 328.215 361.389 330.144C360.825 337.319 359.417 344.385 357.2 351.17C356.429 353.728 355.365 356.171 354.035 358.441C352.981 360.115 351.748 361.647 350.361 363.002C348.326 365.022 345.848 366.827 343.09 366.853C341.537 366.773 340.008 366.41 338.566 365.778L316.095 357.451C315.868 356.056 316.771 354.427 317.196 353.085L318.393 349.222C318.734 348.153 319.129 347 320.021 346.42C320.912 345.84 322.325 346.635 323.067 347.28C323.809 347.925 324.371 348.772 325.101 349.43C326.484 350.681 328.309 351.15 330.068 351.58L335.113 352.812C336.942 353.357 338.83 353.631 340.726 353.626C342.132 348.948 344.807 344.83 346.321 340.191C346.788 338.771 347.141 337.305 347.626 335.884C348.703 332.678 350.402 329.766 352.084 326.88C352.928 325.433 353.843 323.915 355.262 323.159C356.152 322.707 357.157 322.597 358.112 322.85C359.067 323.102 359.915 323.7 360.516 324.547Z" fill="#2F2E41"/>
<path d="M356.8 305.952C356.72 305.197 356.504 304.466 356.165 303.801C355.989 303.469 355.72 303.206 355.397 303.051C355.074 302.897 354.714 302.858 354.37 302.941C353.317 303.3 352.964 305.072 351.863 305.131C351.121 305.17 350.588 304.349 350.355 303.58C350.121 302.811 349.996 301.931 349.439 301.391C349.052 301.075 348.607 300.853 348.134 300.739C345.579 299.86 342.94 298.237 342.09 295.468C341.891 294.906 341.843 294.293 341.953 293.702C342.342 291.95 344.346 291.422 345.872 290.79C347.398 290.158 348.865 289.076 350.361 288.255C351.857 287.434 353.592 286.854 355.238 287.271C356.073 287.557 356.894 287.89 357.697 288.268C360.175 289.207 363.209 288.77 365.129 290.718C365.969 291.685 366.584 292.855 366.925 294.132C368.265 298.185 369.115 302.994 366.895 306.551C365.524 308.747 364.196 311.255 361.563 311.522C358.499 311.803 357.284 308.779 356.8 305.952Z" fill="#2F2E41"/>
<g opacity="0.1">
<path opacity="0.1" d="M352.12 302.199C351.887 301.43 351.761 300.55 351.21 300.009C350.823 299.694 350.378 299.472 349.906 299.358C347.345 298.478 344.712 296.856 343.856 294.087C343.661 293.523 343.615 292.911 343.724 292.321C343.783 292.043 343.891 291.779 344.041 291.546C343.066 292.008 342.216 292.621 341.977 293.702C341.867 294.293 341.914 294.906 342.114 295.468C342.964 298.237 345.603 299.86 348.158 300.739C348.631 300.853 349.075 301.075 349.463 301.391C350.019 301.931 350.139 302.805 350.379 303.58C350.618 304.355 351.144 305.17 351.887 305.131C352.629 305.092 352.988 304.355 353.46 303.736C352.808 303.645 352.335 302.915 352.12 302.199Z" fill="black"/>
<path opacity="0.1" d="M363.322 310.122C360.246 310.428 359.032 307.378 358.535 304.57C358.469 303.817 358.266 303.086 357.937 302.42C357.76 302.088 357.49 301.826 357.168 301.671C356.845 301.517 356.486 301.478 356.141 301.56C355.595 301.848 355.137 302.301 354.819 302.863C355.093 302.892 355.358 302.989 355.593 303.147C355.827 303.306 356.025 303.52 356.171 303.775C356.51 304.44 356.726 305.17 356.806 305.926C357.29 308.734 358.505 311.79 361.593 311.477C362.813 311.33 363.94 310.694 364.753 309.692C364.301 309.921 363.818 310.066 363.322 310.122Z" fill="black"/>
</g>
<path d="M486.578 431.324C497.25 431.324 505.901 429.513 505.901 427.278C505.901 425.043 497.25 423.232 486.578 423.232C475.906 423.232 467.255 425.043 467.255 427.278C467.255 429.513 475.906 431.324 486.578 431.324Z" fill="#FF0000"/>
<path d="M486.255 428.764C487.498 428.764 488.505 427.328 488.505 425.558C488.505 423.788 487.498 422.352 486.255 422.352C485.012 422.352 484.005 423.788 484.005 425.558C484.005 427.328 485.012 428.764 486.255 428.764Z" fill="#3F3D56"/>
<path d="M486.255 424.841C487.498 424.841 488.505 423.406 488.505 421.636C488.505 419.865 487.498 418.43 486.255 418.43C485.012 418.43 484.005 419.865 484.005 421.636C484.005 423.406 485.012 424.841 486.255 424.841Z" fill="#3F3D56"/>
<path d="M486.255 420.925C487.498 420.925 488.505 419.49 488.505 417.72C488.505 415.949 487.498 414.514 486.255 414.514C485.012 414.514 484.005 415.949 484.005 417.72C484.005 419.49 485.012 420.925 486.255 420.925Z" fill="#3F3D56"/>
<path d="M486.255 417.003C487.498 417.003 488.505 415.568 488.505 413.797C488.505 412.027 487.498 410.592 486.255 410.592C485.012 410.592 484.005 412.027 484.005 413.797C484.005 415.568 485.012 417.003 486.255 417.003Z" fill="#3F3D56"/>
<path d="M486.255 413.081C487.498 413.081 488.505 411.645 488.505 409.875C488.505 408.105 487.498 406.669 486.255 406.669C485.012 406.669 484.005 408.105 484.005 409.875C484.005 411.645 485.012 413.081 486.255 413.081Z" fill="#3F3D56"/>
<path d="M486.255 409.165C487.498 409.165 488.505 407.73 488.505 405.959C488.505 404.189 487.498 402.753 486.255 402.753C485.012 402.753 484.005 404.189 484.005 405.959C484.005 407.73 485.012 409.165 486.255 409.165Z" fill="#3F3D56"/>
<path d="M486.255 405.242C487.498 405.242 488.505 403.807 488.505 402.037C488.505 400.266 487.498 398.831 486.255 398.831C485.012 398.831 484.005 400.266 484.005 402.037C484.005 403.807 485.012 405.242 486.255 405.242Z" fill="#3F3D56"/>
<path d="M494.674 375.238C494.982 374.812 495.261 374.364 495.512 373.896L489.6 372.84L495.997 372.886C496.608 371.432 496.941 369.858 496.975 368.26C497.01 366.662 496.747 365.072 496.2 363.588L487.619 368.436L495.53 362.103C494.788 360.712 493.791 359.501 492.6 358.548C491.41 357.594 490.052 356.917 488.612 356.56C487.171 356.202 485.678 356.171 484.225 356.468C482.773 356.765 481.393 357.385 480.17 358.288C478.947 359.192 477.907 360.359 477.117 361.718C476.326 363.078 475.8 364.6 475.573 366.189C475.346 367.779 475.421 369.403 475.795 370.96C476.169 372.516 476.832 373.973 477.745 375.238C477.265 375.9 476.851 376.617 476.513 377.375L484.19 381.721L476.004 378.731C475.432 380.577 475.292 382.549 475.596 384.47C475.9 386.39 476.639 388.197 477.745 389.729C476.497 391.459 475.721 393.537 475.506 395.725C475.29 397.912 475.645 400.122 476.528 402.101C477.412 404.08 478.789 405.748 480.502 406.915C482.215 408.083 484.195 408.702 486.216 408.702C488.237 408.702 490.217 408.083 491.93 406.915C493.643 405.748 495.02 404.08 495.903 402.101C496.787 400.122 497.141 397.912 496.926 395.725C496.711 393.537 495.935 391.459 494.686 389.729C496.182 387.661 496.995 385.106 496.995 382.474C496.995 379.842 496.182 377.286 494.686 375.219L494.674 375.238Z" fill="#FF0000"/>
<path opacity="0.1" d="M475.423 382.47C475.422 385.106 476.241 387.664 477.745 389.729C476.497 391.459 475.721 393.537 475.506 395.725C475.29 397.912 475.645 400.122 476.528 402.101C477.412 404.08 478.789 405.748 480.502 406.915C482.215 408.083 484.195 408.702 486.216 408.702C488.237 408.702 490.217 408.083 491.93 406.915C493.643 405.748 495.02 404.08 495.903 402.101C496.787 400.122 497.141 397.912 496.926 395.725C496.711 393.537 495.935 391.459 494.686 389.729C496.117 387.729 475.423 381.154 475.423 382.47Z" fill="black"/>
<path d="M88.8169 512C104.182 512 116.637 509.392 116.637 506.175C116.637 502.958 104.182 500.35 88.8169 500.35C73.4522 500.35 60.9966 502.958 60.9966 506.175C60.9966 509.392 73.4522 512 88.8169 512Z" fill="#FF0000"/>
<path d="M88.3502 508.319C90.1382 508.319 91.5877 506.25 91.5877 503.699C91.5877 501.148 90.1382 499.08 88.3502 499.08C86.5622 499.08 85.1128 501.148 85.1128 503.699C85.1128 506.25 86.5622 508.319 88.3502 508.319Z" fill="#3F3D56"/>
<path d="M88.3502 502.676C90.1382 502.676 91.5877 500.608 91.5877 498.057C91.5877 495.505 90.1382 493.437 88.3502 493.437C86.5622 493.437 85.1128 495.505 85.1128 498.057C85.1128 500.608 86.5622 502.676 88.3502 502.676Z" fill="#3F3D56"/>
<path d="M88.3502 497.034C90.1382 497.034 91.5877 494.966 91.5877 492.414C91.5877 489.863 90.1382 487.795 88.3502 487.795C86.5622 487.795 85.1128 489.863 85.1128 492.414C85.1128 494.966 86.5622 497.034 88.3502 497.034Z" fill="#3F3D56"/>
<path d="M88.3502 491.391C90.1382 491.391 91.5877 489.323 91.5877 486.772C91.5877 484.22 90.1382 482.152 88.3502 482.152C86.5622 482.152 85.1128 484.22 85.1128 486.772C85.1128 489.323 86.5622 491.391 88.3502 491.391Z" fill="#3F3D56"/>
<path d="M88.3502 485.749C90.1382 485.749 91.5877 483.681 91.5877 481.129C91.5877 478.578 90.1382 476.51 88.3502 476.51C86.5622 476.51 85.1128 478.578 85.1128 481.129C85.1128 483.681 86.5622 485.749 88.3502 485.749Z" fill="#3F3D56"/>
<path d="M88.3502 480.1C90.1382 480.1 91.5877 478.032 91.5877 475.48C91.5877 472.929 90.1382 470.861 88.3502 470.861C86.5622 470.861 85.1128 472.929 85.1128 475.48C85.1128 478.032 86.5622 480.1 88.3502 480.1Z" fill="#3F3D56"/>
<path d="M88.3502 474.457C90.1382 474.457 91.5877 472.389 91.5877 469.838C91.5877 467.286 90.1382 465.218 88.3502 465.218C86.5622 465.218 85.1128 467.286 85.1128 469.838C85.1128 472.389 86.5622 474.457 88.3502 474.457Z" fill="#3F3D56"/>
<path d="M100.474 431.226C100.912 430.604 101.312 429.951 101.671 429.272L93.1615 427.747L102.365 427.825C103.247 425.732 103.728 423.466 103.779 421.163C103.829 418.861 103.448 416.572 102.658 414.436L90.3191 421.434L101.689 412.312C100.624 410.3 99.1902 408.549 97.4764 407.168C95.7626 405.787 93.8057 404.805 91.7279 404.284C89.6501 403.763 87.496 403.714 85.3999 404.14C83.3038 404.565 81.3108 405.457 79.5453 406.758C77.7797 408.06 76.2795 409.744 75.1382 411.705C73.9969 413.666 73.239 415.862 72.9119 418.156C72.5847 420.45 72.6953 422.793 73.2368 425.038C73.7782 427.284 74.7389 429.384 76.0588 431.207C75.3599 432.158 74.758 433.189 74.2636 434.282L85.3163 440.537L73.5335 436.23C72.7077 438.901 72.5083 441.753 72.9536 444.529C73.3988 447.304 74.4745 449.915 76.0827 452.122C74.2823 454.614 73.1622 457.607 72.8506 460.76C72.539 463.912 73.0485 467.096 74.3207 469.949C75.5929 472.801 77.5765 475.205 80.0448 476.888C82.5131 478.57 85.3664 479.462 88.2785 479.462C91.1905 479.462 94.0438 478.57 96.5121 476.888C98.9804 475.205 100.964 472.801 102.236 469.949C103.508 467.096 104.018 463.912 103.706 460.76C103.395 457.607 102.275 454.614 100.474 452.122C102.626 449.145 103.796 445.466 103.796 441.677C103.796 437.889 102.626 434.21 100.474 431.233V431.226Z" fill="#FF0000"/>
<path opacity="0.1" d="M72.7612 441.697C72.7618 445.479 73.9317 449.152 76.0824 452.122C74.282 454.614 73.1619 457.607 72.8503 460.76C72.5387 463.912 73.0482 467.096 74.3204 469.949C75.5926 472.801 77.5762 475.205 80.0445 476.888C82.5128 478.57 85.3661 479.462 88.2782 479.462C91.1902 479.462 94.0435 478.57 96.5118 476.888C98.9801 475.205 100.964 472.801 102.236 469.949C103.508 467.096 104.018 463.912 103.706 460.76C103.394 457.607 102.274 454.614 100.474 452.122C102.538 449.242 72.7612 439.775 72.7612 441.697Z" fill="black"/>
</g>
<defs>
<linearGradient id="paint0_linear_99_466" x1="360.176" y1="499.318" x2="350.789" y2="285.592" gradientUnits="userSpaceOnUse">
<stop stop-color="#808080" stop-opacity="0.25"/>
<stop offset="0.54" stop-color="#808080" stop-opacity="0.12"/>
<stop offset="1" stop-color="#808080" stop-opacity="0.1"/>
</linearGradient>
<clipPath id="clip0_99_466">
<rect width="612" height="512" fill="white"/>
</clipPath>
</defs>
</svg>
