<svg width="445" height="449" viewBox="0 0 445 449" fill="none" xmlns="http://www.w3.org/2000/svg">
<g clip-path="url(#clip0_99_623)">
<path d="M312.393 449H190.599C189.184 448.998 187.826 448.448 186.825 447.468C185.824 446.489 185.261 445.161 185.259 443.776V360.472C185.261 359.087 185.824 357.759 186.825 356.78C187.826 355.8 189.184 355.249 190.599 355.248H312.393C313.808 355.249 315.166 355.8 316.167 356.78C317.168 357.759 317.731 359.087 317.732 360.472V443.776C317.731 445.161 317.168 446.489 316.167 447.468C315.166 448.447 313.808 448.998 312.393 449Z" fill="#2C0505"/>
<path d="M113.358 231.846C114.175 230.824 114.752 229.639 115.05 228.375C115.348 227.11 115.359 225.797 115.082 224.529C114.805 223.26 114.247 222.066 113.447 221.031C112.647 219.996 111.626 219.145 110.453 218.538L109.686 138.844L94.4604 145.68L97.8093 222.755C96.8977 224.749 96.7654 227.001 97.4376 229.084C98.1097 231.167 99.5396 232.937 101.456 234.057C103.373 235.178 105.643 235.572 107.837 235.164C110.03 234.757 111.995 233.576 113.358 231.846Z" fill="#9E616A"/>
<path d="M112.948 118.667C112.948 118.667 98.1373 111.639 96.0889 124.899C94.0406 138.16 85.6155 172.673 85.6155 172.673L111.182 170.904L112.948 118.667Z" fill="#9E616A"/>
<path d="M113.358 231.846C114.175 230.824 114.752 229.639 115.05 228.375C115.348 227.11 115.359 225.797 115.082 224.529C114.805 223.26 114.247 222.066 113.447 221.031C112.647 219.996 111.626 219.145 110.453 218.538L109.686 138.844L94.4604 145.68L97.8093 222.755C96.8977 224.749 96.7654 227.001 97.4376 229.084C98.1097 231.167 99.5396 232.937 101.456 234.057C103.373 235.178 105.643 235.572 107.837 235.164C110.03 234.757 111.995 233.576 113.358 231.846Z" fill="#9E616A"/>
<path d="M112.948 118.667C112.948 118.667 98.1373 111.639 96.0889 124.899C94.0406 138.16 85.6155 172.673 85.6155 172.673L111.182 170.904L112.948 118.667Z" fill="#FF0000"/>
<path d="M70.0641 425.659C69.466 425.686 68.874 425.532 68.3682 425.219C67.8624 424.906 67.4673 424.448 67.2364 423.907C67.0054 423.367 66.9498 422.77 67.0771 422.198C67.2044 421.626 67.5085 421.106 67.9481 420.708C68.0217 420.422 68.0745 420.216 68.1481 419.93C68.1218 419.868 68.0953 419.805 68.0686 419.743C67.4662 418.351 66.4567 417.164 65.1669 416.332C63.8771 415.499 62.3646 415.058 60.8193 415.063C59.2741 415.069 57.765 415.521 56.4816 416.363C55.1982 417.205 54.1977 418.399 53.6058 419.796C51.2404 425.369 48.2287 430.952 47.4872 436.845C47.1606 439.45 47.2983 442.091 47.8943 444.65C42.3385 432.793 39.4535 419.907 39.4349 406.864C39.4338 403.591 39.6196 400.321 39.9917 397.068C40.2992 394.401 40.7258 391.754 41.2714 389.125C44.2492 374.863 50.6427 361.496 59.9268 350.12C64.4203 347.722 68.0543 344.033 70.339 339.552C71.1667 337.941 71.7516 336.222 72.0757 334.447C71.5688 334.512 71.0537 334.552 70.5468 334.585C70.3889 334.593 70.2227 334.601 70.0648 334.609L70.0052 334.612C69.4481 334.636 68.8957 334.503 68.4144 334.227C67.9331 333.952 67.5435 333.546 67.2925 333.059C67.0415 332.572 66.9397 332.024 66.9995 331.481C67.0593 330.939 67.2781 330.425 67.6295 330.001C67.8483 329.738 68.0673 329.475 68.2865 329.211C68.6189 328.805 68.9596 328.406 69.292 328C69.3303 327.961 69.3664 327.921 69.4 327.878C69.7823 327.415 70.1645 326.959 70.5468 326.496C69.849 325.437 68.9105 324.549 67.8045 323.903C63.9737 321.708 58.6887 323.228 55.9215 326.618C53.146 330.008 52.6226 334.764 53.5864 338.999C54.5344 342.603 56.1024 346.023 58.2233 349.112C58.0156 349.372 57.7995 349.624 57.5918 349.885C53.7942 354.662 50.4843 359.792 47.7096 365.201C48.3844 359.141 47.579 353.011 45.3598 347.316C43.1106 342.008 38.8949 337.537 35.1824 332.948C30.7231 327.436 21.579 329.842 20.7934 336.829C20.7858 336.897 20.7784 336.964 20.7711 337.032C21.3226 337.336 21.8623 337.659 22.3905 338.001C23.0539 338.435 23.568 339.054 23.8654 339.779C24.1627 340.503 24.2295 341.298 24.0569 342.06C23.8843 342.823 23.4804 343.516 22.8981 344.05C22.3159 344.583 21.5824 344.933 20.7938 345.052L20.713 345.064C20.9094 347.008 21.2567 348.935 21.7517 350.828C23.1861 356.112 25.7209 361.049 29.1971 365.329C32.6733 369.61 37.0159 373.142 41.9528 375.704C42.2769 375.866 42.5927 376.029 42.9168 376.183C40.129 383.912 38.3804 391.963 37.7148 400.133C37.338 404.953 37.3603 409.795 37.7813 414.611L37.7564 414.441C36.6926 409.085 33.7722 404.252 29.4881 400.759C23.1253 395.645 14.1357 393.762 7.27129 389.652C6.54177 389.194 5.69352 388.949 4.82658 388.947C3.95964 388.945 3.11017 389.186 2.37837 389.64C1.64658 390.095 1.06298 390.745 0.69639 391.514C0.329803 392.282 0.195531 393.137 0.309406 393.978C0.318612 394.038 0.327961 394.098 0.337469 394.158C1.36075 394.565 2.35706 395.035 3.32064 395.564C3.87207 395.868 4.41184 396.191 4.93997 396.533C5.60344 396.967 6.11755 397.586 6.41491 398.311C6.71227 399.035 6.77901 399.83 6.60642 400.592C6.43383 401.355 6.02994 402.048 5.44766 402.582C4.86539 403.115 4.1319 403.465 3.34328 403.584L3.26247 403.596C3.20429 403.604 3.15445 403.612 3.09636 403.62C4.84477 407.704 7.29872 411.464 10.3507 414.733C14.121 418.691 18.6779 421.854 23.7419 424.028C28.806 426.201 34.2706 427.34 39.8006 427.375H39.8089C41.3101 433.756 43.4851 439.968 46.2989 445.91H69.4831C69.5663 445.658 69.641 445.398 69.7158 445.146C67.5698 445.277 65.4154 445.152 63.3006 444.772C65.0208 442.707 66.7408 440.625 68.461 438.561C68.4994 438.522 68.5354 438.481 68.569 438.439C69.4415 437.382 70.3224 436.333 71.1949 435.276L71.1954 435.275C71.2419 432.036 70.8619 428.804 70.0648 425.659L70.0641 425.659Z" fill="#8C0505"/>
<path d="M411.868 425.659C411.27 425.686 410.678 425.532 410.172 425.219C409.666 424.906 409.271 424.448 409.04 423.907C408.809 423.367 408.754 422.77 408.881 422.198C409.008 421.626 409.312 421.106 409.752 420.708C409.825 420.422 409.878 420.216 409.952 419.93C409.926 419.868 409.899 419.805 409.872 419.743C409.27 418.351 408.26 417.164 406.971 416.332C405.681 415.499 404.168 415.058 402.623 415.063C401.078 415.069 399.569 415.521 398.285 416.363C397.002 417.205 396.001 418.399 395.41 419.796C393.044 425.369 390.032 430.952 389.291 436.845C388.964 439.45 389.102 442.091 389.698 444.65C384.142 432.793 381.257 419.907 381.239 406.864C381.237 403.591 381.423 400.321 381.795 397.068C382.103 394.401 382.529 391.754 383.075 389.125C386.053 374.863 392.446 361.496 401.731 350.12C406.224 347.722 409.858 344.033 412.143 339.552C412.97 337.941 413.555 336.222 413.879 334.447C413.373 334.512 412.857 334.552 412.35 334.585C412.193 334.593 412.026 334.601 411.868 334.609L411.809 334.612C411.252 334.636 410.699 334.503 410.218 334.227C409.737 333.952 409.347 333.546 409.096 333.059C408.845 332.572 408.743 332.024 408.803 331.481C408.863 330.939 409.082 330.425 409.433 330.001C409.652 329.738 409.871 329.475 410.09 329.211C410.423 328.805 410.763 328.406 411.096 328C411.134 327.961 411.17 327.921 411.204 327.878C411.586 327.415 411.968 326.959 412.35 326.496C411.653 325.437 410.714 324.549 409.608 323.903C405.777 321.708 400.492 323.228 397.725 326.618C394.95 330.008 394.426 334.764 395.39 338.999C396.338 342.603 397.906 346.023 400.027 349.112C399.819 349.372 399.603 349.624 399.395 349.885C395.598 354.662 392.288 359.792 389.513 365.201C390.188 359.141 389.383 353.011 387.163 347.316C384.914 342.008 380.699 337.537 376.986 332.948C372.527 327.436 363.383 329.842 362.597 336.829C362.589 336.897 362.582 336.964 362.575 337.032C363.126 337.336 363.666 337.659 364.194 338.001C364.858 338.435 365.372 339.054 365.669 339.779C365.966 340.503 366.033 341.298 365.861 342.06C365.688 342.823 365.284 343.516 364.702 344.05C364.12 344.583 363.386 344.933 362.597 345.052L362.517 345.064C362.713 347.008 363.06 348.935 363.555 350.828C364.99 356.112 367.525 361.049 371.001 365.329C374.477 369.61 378.82 373.142 383.757 375.704C384.081 375.866 384.396 376.029 384.72 376.183C381.933 383.912 380.184 391.963 379.519 400.133C379.142 404.953 379.164 409.795 379.585 414.611L379.56 414.441C378.496 409.085 375.576 404.252 371.292 400.759C364.929 395.645 355.939 393.762 349.075 389.652C348.346 389.194 347.497 388.949 346.63 388.947C345.763 388.945 344.914 389.186 344.182 389.64C343.45 390.095 342.867 390.745 342.5 391.514C342.133 392.282 341.999 393.137 342.113 393.978C342.122 394.038 342.132 394.098 342.141 394.158C343.164 394.565 344.161 395.035 345.124 395.564C345.676 395.868 346.216 396.191 346.744 396.533C347.407 396.967 347.921 397.586 348.219 398.311C348.516 399.035 348.583 399.83 348.41 400.592C348.238 401.355 347.834 402.048 347.251 402.582C346.669 403.115 345.936 403.465 345.147 403.584L345.066 403.596C345.008 403.604 344.958 403.612 344.9 403.62C346.648 407.704 349.102 411.464 352.154 414.733C355.925 418.691 360.482 421.854 365.546 424.028C370.61 426.201 376.074 427.34 381.604 427.375H381.613C383.114 433.756 385.289 439.968 388.103 445.91H411.287C411.37 445.658 411.445 445.398 411.52 445.146C409.374 445.277 407.219 445.152 405.104 444.772C406.824 442.707 408.545 440.625 410.265 438.561C410.303 438.522 410.339 438.481 410.373 438.439C411.245 437.382 412.126 436.333 412.999 435.276L412.999 435.275C413.046 432.036 412.666 428.804 411.868 425.659L411.868 425.659Z" fill="#8C0505"/>
<path d="M322.588 445.761C322.522 445.761 322.455 445.76 322.388 445.758C320.692 445.664 319.098 444.932 317.939 443.717C316.779 442.501 316.144 440.895 316.165 439.233C316.165 429.118 308.779 423.218 301.46 421.858C294.141 420.498 285.059 423.337 281.268 432.748L277.821 441.212C274.842 444.12 270.804 445.754 266.595 445.754C262.386 445.754 258.348 444.12 255.369 441.212L255.165 441.013L255.291 440.759L316.165 318.914V315.928C316.08 315.008 316.081 314.082 316.166 313.161L316.165 6.28191C316.165 5.44072 316.337 4.6081 316.672 3.83344C317.008 3.05877 317.498 2.35783 318.115 1.77222C318.733 1.18661 319.464 0.728257 320.266 0.424337C321.067 0.120417 321.923 -0.0228806 322.783 0.00296597C324.479 0.0978322 326.073 0.829123 327.233 2.04463C328.392 3.26013 329.028 4.8662 329.007 6.52856V313.197C329.091 314.117 329.091 315.043 329.005 315.964L329.007 318.913L390.007 441.013L389.803 441.212C386.823 444.12 382.786 445.754 378.577 445.754C374.367 445.754 370.33 444.12 367.35 441.212L367.26 441.078L363.904 432.748C360.113 423.338 351.031 420.501 343.711 421.858C336.392 423.218 329.007 429.118 329.007 439.233V439.48C329.007 441.145 328.331 442.743 327.127 443.921C325.923 445.099 324.291 445.761 322.588 445.761L322.588 445.761Z" fill="#590000"/>
<path d="M434.017 222.123H211.155C208.564 222.12 206.08 221.112 204.249 219.32C202.417 217.528 201.386 215.098 201.383 212.564V60.1308C201.386 57.5964 202.417 55.1665 204.248 53.3744C206.08 51.5823 208.564 50.5742 211.155 50.5714H434.017C436.607 50.5743 439.091 51.5824 440.923 53.3745C442.755 55.1666 443.785 57.5964 443.788 60.1308V212.564C443.785 215.098 442.754 217.528 440.923 219.32C439.091 221.112 436.607 222.12 434.017 222.123Z" fill="white"/>
<path d="M434.017 223.309H211.155C208.243 223.305 205.451 222.172 203.392 220.158C201.333 218.144 200.175 215.413 200.171 212.564V60.1306C200.175 57.2819 201.333 54.5507 203.392 52.5364C205.451 50.522 208.243 49.389 211.155 49.3858H434.017C436.929 49.389 439.72 50.5221 441.779 52.5365C443.838 54.5508 444.997 57.2819 445 60.1306V212.564C444.997 215.413 443.838 218.144 441.779 220.158C439.72 222.172 436.929 223.305 434.017 223.309ZM211.155 51.7573C208.885 51.7597 206.71 52.6427 205.105 54.2125C203.501 55.7822 202.598 57.9106 202.595 60.1306V212.564C202.598 214.784 203.501 216.912 205.105 218.482C206.71 220.052 208.886 220.935 211.155 220.937H434.017C436.286 220.935 438.461 220.052 440.066 218.482C441.671 216.912 442.573 214.784 442.576 212.564V60.1306C442.573 57.9106 441.671 55.7823 440.066 54.2125C438.462 52.6427 436.286 51.7598 434.017 51.7573H211.155Z" fill="#F2F2F2"/>
<path d="M355.537 60.1021H289.635C285.457 60.0974 281.451 58.4717 278.496 55.5814C275.542 52.6911 273.88 48.7723 273.875 44.6848V44.4045H371.296V44.6848C371.291 48.7723 369.629 52.6911 366.675 55.5814C363.721 58.4717 359.715 60.0974 355.537 60.1021Z" fill="#620505"/>
<path d="M355.823 231.654H289.921C285.743 231.649 281.738 230.023 278.783 227.133C275.829 224.243 274.167 220.324 274.162 216.236V215.956H371.582V216.236C371.578 220.324 369.916 224.243 366.961 227.133C364.007 230.023 360.001 231.649 355.823 231.654Z" fill="#620505"/>
<path d="M444.159 446.547C444.16 446.67 444.135 446.793 444.087 446.907C444.039 447.021 443.968 447.125 443.879 447.213C443.789 447.3 443.683 447.369 443.566 447.416C443.449 447.464 443.324 447.488 443.198 447.487H0.961578C0.706552 447.487 0.461993 447.388 0.281662 447.212C0.101332 447.035 0 446.796 0 446.547C0 446.297 0.101332 446.058 0.281662 445.881C0.461993 445.705 0.706552 445.606 0.961578 445.606H443.198C443.324 445.606 443.449 445.63 443.566 445.677C443.683 445.724 443.789 445.793 443.879 445.881C443.968 445.968 444.039 446.072 444.087 446.186C444.135 446.3 444.16 446.423 444.159 446.547Z" fill="#CCCCCC"/>
<path d="M148.928 424.648H160.577L166.118 380.691L148.926 380.692L148.928 424.648Z" fill="#9E616A"/>
<path d="M144.983 419.027L163.397 417.951V425.67L180.905 437.499C181.77 438.083 182.421 438.922 182.763 439.894C183.106 440.866 183.122 441.919 182.81 442.901C182.497 443.882 181.872 444.74 181.025 445.35C180.179 445.959 179.155 446.287 178.104 446.287H156.181L152.402 438.653L150.927 446.287H142.661L144.983 419.027Z" fill="#2F2E41"/>
<path d="M109.31 180.152L108.169 185.472L107.199 205.096L146.182 199.933L149.176 177.208L145.038 170.557L109.31 180.152Z" fill="#9E616A"/>
<path d="M89.9736 424.648H101.622L107.164 380.691L89.9712 380.692L89.9736 424.648Z" fill="#9E616A"/>
<path d="M83.6537 346.989L83.6532 346.871L88.0137 326.956L90.7025 317.042L83.2286 258.996C81.4688 216.823 106.478 196.551 106.675 196.351L107.217 195.8L147.325 194.839C168.905 207.489 166.462 276.673 170.414 323.724C170.696 327.079 174.237 332.031 173.366 335.222C166.461 360.54 168.484 387.919 163.223 388.728L147.093 388.509L138.763 351.522L146.453 323.311C143.042 322.697 140.685 306.385 140.685 306.385C139.199 304.659 134.069 289.977 134.069 289.977L127.228 249.337L116.238 319.238L118.885 335.636L116.695 341.275L107.315 387.825L107.215 388.575L89.5304 386.848L83.6537 346.989Z" fill="#2F2E41"/>
<path d="M86.0287 419.027L104.443 417.951V425.67L121.951 437.499C122.815 438.083 123.467 438.922 123.809 439.894C124.152 440.866 124.168 441.919 123.855 442.901C123.543 443.882 122.918 444.74 122.071 445.35C121.225 445.959 120.201 446.287 119.15 446.287H97.227L93.4482 438.653L91.9727 446.287H83.7068L86.0287 419.027Z" fill="#2F2E41"/>
<path d="M141.472 103.404L151.304 114.092L163.114 135.868L157.313 162.721L159.849 175.321L163.594 189.173C149.163 196.982 132.021 186.197 116.272 181.406L100.777 188.104L101.596 169.668L102.017 123.217C102.033 121.433 102.424 119.671 103.165 118.041C103.906 116.411 104.982 114.947 106.325 113.74C107.669 112.534 109.252 111.611 110.975 111.027C112.699 110.444 114.526 110.214 116.345 110.351L126.723 102.87L141.472 103.404Z" fill="#FF0000"/>
<path d="M138.718 97.8095C150.168 97.8095 159.45 88.7288 159.45 77.5271C159.45 66.3255 150.168 57.2447 138.718 57.2447C127.268 57.2447 117.985 66.3255 117.985 77.5271C117.985 88.7288 127.268 97.8095 138.718 97.8095Z" fill="#9E616A"/>
<path d="M163.114 70.2074C162.748 72.1947 154.021 73.1539 154.283 69.6181C152.585 72.947 150.048 77.7778 153.28 83.3114C152.014 84.6604 151.216 86.3666 151.001 88.1858C150.786 90.0051 151.165 91.8442 152.083 93.4403C153.002 94.9029 153.773 96.4505 154.383 98.0606C154.506 98.4514 154.594 98.8521 154.646 99.2579C154.698 99.6658 154.637 100.08 154.469 100.457C154.301 100.833 154.033 101.159 153.692 101.4C153.351 101.64 152.951 101.786 152.532 101.823C152.114 101.86 151.693 101.786 151.314 101.609C142.522 97.3961 127.19 98.1101 117.572 100.68C117.636 98.8499 117.61 97.0235 117.495 95.2013C117.144 97.48 116.204 99.6334 114.765 101.458C113.118 101.934 111.503 102.429 109.94 102.918C109.701 102.994 109.446 103.005 109.202 102.95C108.958 102.895 108.733 102.776 108.552 102.607C108.372 102.437 108.241 102.222 108.175 101.986C108.109 101.749 108.11 101.5 108.177 101.263C108.482 100.181 108.539 99.0469 108.344 97.9409C107.947 95.6464 106.768 93.5713 105.935 91.396C105.102 89.2207 104.627 86.7193 105.646 84.6192C107.229 81.3593 111.689 80.3626 113.656 77.3096C115.867 73.8804 114.15 69.4106 114.496 65.3671C114.983 59.6498 119.77 55.0045 125.165 52.7602C134.508 48.8734 146.196 52.0211 153.2 59.2053C154.183 58.5564 155.33 58.1865 156.514 58.1367C157.699 58.0869 158.874 58.3591 159.91 58.9232C161.979 60.0078 163.466 60.572 164.395 62.6846C165.209 64.5403 163.485 68.2139 163.114 70.2074Z" fill="#2F2E41"/>
<path d="M154.209 308.721L105.431 261.002C104.865 260.447 104.547 259.694 104.547 258.91C104.547 258.126 104.865 257.373 105.431 256.818L139.534 223.455C140.102 222.901 140.871 222.59 141.673 222.59C142.475 222.59 143.244 222.901 143.811 223.455L192.589 271.174C193.155 271.729 193.473 272.482 193.473 273.266C193.473 274.051 193.155 274.803 192.589 275.358L158.486 308.721C157.918 309.275 157.149 309.586 156.347 309.586C155.545 309.586 154.776 309.275 154.209 308.721Z" fill="#FAFAFA"/>
<path d="M156.347 310.376C155.844 310.378 155.345 310.282 154.88 310.094C154.415 309.905 153.993 309.629 153.637 309.28L104.86 261.561C104.142 260.858 103.739 259.904 103.739 258.91C103.739 257.916 104.142 256.963 104.86 256.259L138.963 222.896C139.682 222.194 140.657 221.799 141.673 221.799C142.689 221.799 143.664 222.194 144.383 222.896L193.16 270.615C193.878 271.319 194.281 272.272 194.281 273.266C194.281 274.26 193.878 275.214 193.16 275.917L159.057 309.28C158.702 309.629 158.279 309.905 157.814 310.094C157.349 310.282 156.851 310.378 156.347 310.376ZM141.673 223.38C141.381 223.379 141.093 223.435 140.824 223.543C140.555 223.652 140.311 223.812 140.106 224.014L106.002 257.377C105.588 257.784 105.355 258.335 105.355 258.91C105.355 259.485 105.588 260.036 106.002 260.443L154.78 308.162C155.203 308.555 155.764 308.775 156.347 308.775C156.931 308.775 157.492 308.555 157.914 308.162L192.017 274.799C192.432 274.392 192.665 273.841 192.665 273.266C192.665 272.691 192.432 272.14 192.017 271.733L143.24 224.014C143.034 223.812 142.79 223.652 142.521 223.544C142.252 223.435 141.964 223.379 141.673 223.38Z" fill="#E6E6E6"/>
<path d="M135.83 227.894C135.014 226.871 134.436 225.686 134.138 224.422C133.841 223.158 133.83 221.845 134.107 220.576C134.384 219.307 134.942 218.113 135.741 217.078C136.541 216.043 137.563 215.192 138.735 214.585L139.503 134.892L154.728 141.727L151.379 218.803C152.291 220.797 152.423 223.048 151.751 225.132C151.079 227.215 149.649 228.984 147.732 230.105C145.816 231.225 143.545 231.619 141.352 231.212C139.158 230.804 137.193 229.624 135.83 227.894Z" fill="#9E616A"/>
<path d="M136.24 114.715C136.24 114.715 151.051 107.686 153.099 120.947C155.148 134.208 163.573 168.72 163.573 168.72L138.007 166.951L136.24 114.715Z" fill="#9E616A"/>
<path d="M135.83 227.894C135.014 226.871 134.436 225.686 134.138 224.422C133.841 223.158 133.83 221.845 134.107 220.576C134.384 219.307 134.942 218.113 135.741 217.078C136.541 216.043 137.563 215.192 138.735 214.585L139.503 134.892L154.728 141.727L151.379 218.803C152.291 220.797 152.423 223.048 151.751 225.132C151.079 227.215 149.649 228.984 147.732 230.105C145.816 231.225 143.545 231.619 141.352 231.212C139.158 230.804 137.193 229.624 135.83 227.894Z" fill="#9E616A"/>
<path d="M136.24 114.715C136.24 114.715 151.051 107.686 153.099 120.947C155.148 134.208 163.573 168.72 163.573 168.72L138.007 166.951L136.24 114.715Z" fill="#FF0000"/>
</g>
<defs>
<clipPath id="clip0_99_623">
<rect width="445" height="449" fill="white"/>
</clipPath>
</defs>
</svg>
