<svg width="541" height="356" viewBox="0 0 541 356" fill="none" xmlns="http://www.w3.org/2000/svg">
<g clip-path="url(#clip0_97_220)">
<path d="M463.426 347.733L463.44 353.514V354.736H452.298V352.903L452.29 330.297L452.276 308.395V304.374L452.269 288.072L452.261 287.81L450.323 232.918V232.874L448.349 176.921V176.914L448.298 175.394L438.68 180.506L426.819 186.81L421.186 189.806L413.144 194.074L399.584 201.287H399.577L329.254 238.655L329.108 353.514V354.736H318.351L318.307 353.514L314.736 243.018L211.022 201.593L200.047 197.208L195.357 132.369C194.181 116.117 202.878 101.218 216.64 93.9615C220.037 92.1728 223.739 90.8494 227.674 90.0859L243.512 87.0101L283.044 79.3242L295.834 76.8446L312.551 73.5943L319.142 72.3145L329.979 70.2058L330.959 70.0168L334.015 69.4205L335.104 69.2096L336.875 68.8679L338.124 71.0784C338.131 71.0784 338.131 71.0857 338.131 71.093L345.477 84.1524L346.798 86.5083L346.805 86.5156L353.171 97.8226C353.171 97.8226 353.179 97.8299 353.179 97.8371L359.378 108.861L371.543 111.282L377.539 112.474L414.704 119.87L419.604 120.851H419.611L432.009 123.316L435.29 123.971L450.614 127.017L450.73 127.039L457.531 128.392L468.986 130.675L463.259 288.072L463.367 326.443V326.45L463.425 347.733H463.426Z" fill="#3F3D56"/>
<path d="M273.274 44.4142C271.648 41.3456 266.973 34.7796 261.587 27.4064C260.585 26.0321 259.562 24.636 258.531 23.2253C256.694 20.7312 254.829 18.1935 253.021 15.7212C251.867 14.0924 249.61 13.7071 247.984 14.8559L237.154 22.5345C235.528 23.6834 235.136 25.9448 236.29 27.5736L239.549 32.191L240.406 33.4053L241.669 35.1941L243.186 37.3391V37.3464L243.614 37.9426L245.124 40.0877L245.959 41.2657L253.268 51.6201L256.549 56.2666C257.696 57.8953 259.954 58.2807 261.58 57.1319L271.001 50.4494L272.33 49.5115L272.41 49.4533C274.036 48.3044 274.428 46.043 273.274 44.4142Z" fill="#3F3D56"/>
<path d="M261.572 27.2464L258.749 23.2543C258.698 23.1817 258.603 23.1671 258.538 23.218L258.531 23.2253C258.465 23.2689 258.451 23.3562 258.502 23.4289L261.325 27.4282C261.369 27.4936 261.463 27.5081 261.536 27.4645C261.558 27.45 261.572 27.4282 261.587 27.4063C261.609 27.3554 261.609 27.2972 261.572 27.2464H261.572Z" fill="#3F3D56"/>
<path d="M252.739 15.9191L272.995 44.6128C273.996 46.0299 273.713 47.969 272.384 49.0452L272.384 49.0456C272.364 49.0615 272.344 49.0773 272.324 49.0929C272.288 49.1208 272.252 49.1475 272.214 49.174C272.214 49.174 272.07 49.2612 271.806 49.42C271.54 49.5806 271.152 49.8135 270.666 50.1022C270.521 50.1892 270.367 50.2802 270.205 50.3764C269.882 50.5678 269.527 50.7779 269.145 51.0016C268.993 51.0913 268.836 51.1833 268.675 51.2775C267.854 51.7592 266.931 52.2955 265.954 52.8547C265.789 52.9499 265.623 53.0453 265.455 53.141C265.41 53.1658 257.062 56.4022 256.826 56.0675L236.569 27.3737C235.527 25.8979 235.877 23.8562 237.35 22.8125L238.942 21.6845C239.197 21.5043 239.541 21.558 239.743 21.7968C239.756 21.8123 239.77 21.8278 239.785 21.8425C240.012 22.0653 240.371 22.0776 240.631 21.8939L246.227 17.929C246.487 17.7453 246.595 17.4017 246.461 17.1135C246.452 17.0944 246.442 17.0763 246.432 17.0581C246.274 16.7884 246.339 16.445 246.593 16.2648L248.185 15.1367C249.658 14.0931 251.697 14.4433 252.739 15.9191H252.739Z" fill="#FF0009"/>
<path d="M240.398 33.2598L239.687 32.2564C239.658 32.2127 239.607 32.1837 239.549 32.1909C239.527 32.1909 239.498 32.2054 239.476 32.22C239.411 32.2709 239.389 32.3654 239.44 32.4309L240.144 33.4343C240.195 33.4998 240.289 33.5216 240.362 33.4707C240.384 33.4561 240.398 33.4343 240.406 33.4052C240.427 33.3616 240.427 33.3034 240.398 33.2598L240.398 33.2598Z" fill="#3F3D56"/>
<path d="M243.171 37.1936L241.807 35.2521C241.77 35.2085 241.719 35.1867 241.669 35.194C241.64 35.194 241.611 35.2013 241.596 35.2158C241.523 35.2667 241.509 35.3612 241.56 35.4339L242.924 37.3681C242.975 37.4336 243.07 37.4554 243.135 37.4045C243.157 37.3899 243.171 37.3681 243.186 37.3463V37.3391C243.207 37.2954 243.207 37.2373 243.171 37.1936V37.1936Z" fill="#3F3D56"/>
<path d="M245.109 39.9423L243.745 38.0008C243.708 37.9572 243.658 37.9354 243.614 37.9427C243.585 37.9427 243.556 37.9499 243.534 37.9645C243.462 38.0154 243.447 38.1099 243.498 38.1826L244.862 40.1168C244.913 40.1823 245.008 40.2041 245.073 40.1532C245.095 40.1386 245.117 40.1168 245.124 40.0877C245.146 40.0441 245.146 39.9859 245.109 39.9423V39.9423Z" fill="#3F3D56"/>
<path d="M239.075 22.2466L236.956 23.7482C236.87 23.8092 236.849 23.9285 236.91 24.0148C236.971 24.101 237.09 24.1215 237.176 24.0605L239.296 22.5588C239.382 22.4979 239.402 22.3785 239.341 22.2923C239.281 22.206 239.161 22.1856 239.075 22.2466Z" fill="#E6E6E6"/>
<path d="M247.34 16.7915C247.508 16.7915 247.645 16.6545 247.645 16.4855C247.645 16.3166 247.508 16.1796 247.34 16.1796C247.171 16.1796 247.034 16.3166 247.034 16.4855C247.034 16.6545 247.171 16.7915 247.34 16.7915Z" fill="#E6E6E6"/>
<path d="M248.026 16.3057C248.194 16.3057 248.331 16.1687 248.331 15.9997C248.331 15.8307 248.194 15.6937 248.026 15.6937C247.857 15.6937 247.72 15.8307 247.72 15.9997C247.72 16.1687 247.857 16.3057 248.026 16.3057Z" fill="#E6E6E6"/>
<path d="M248.711 15.8198C248.88 15.8198 249.017 15.6828 249.017 15.5139C249.017 15.3449 248.88 15.2079 248.711 15.2079C248.543 15.2079 248.406 15.3449 248.406 15.5139C248.406 15.6828 248.543 15.8198 248.711 15.8198Z" fill="#E6E6E6"/>
<path d="M329.979 33.6017H287.878V73.5944H329.979V33.6017Z" fill="#2F2E41"/>
<path d="M258.127 46.5817C256.807 48.7279 255.114 50.3978 253.365 51.436L242.086 72.6773L232.153 67.0056L244.664 46.0691C244.802 44.0374 245.528 41.7706 246.847 39.6243C249.861 34.7212 254.829 32.3039 257.944 34.2251C261.059 36.1463 261.14 41.6785 258.127 46.5817Z" fill="#A0616A"/>
<path d="M449.534 330.848L458.59 329.031L454.504 287.36L441.14 290.042L449.534 330.848Z" fill="#A0616A"/>
<path d="M484.667 342.707C485.01 344.232 484.208 345.711 482.875 346.011L464.996 350.042C464.996 350.042 461.645 343.353 453.786 341.921L455.567 352.167L446.344 354.246L443.801 337.699C443.801 337.699 439.375 329.537 443.498 323.926C447.621 318.314 443.61 319.87 443.61 319.87L443.361 309.33L457.667 307.83L461.326 323.639L471.62 337.829L482.644 340.502C483.625 340.74 484.42 341.607 484.667 342.707H484.667Z" fill="#2F2E41"/>
<path d="M293.322 117.586L294.048 122.676C294.048 122.676 309.292 139.401 312.921 146.672L356.951 124.858L349.215 106.679L293.322 117.586Z" fill="#A0616A"/>
<path d="M348.489 123.404C348.489 123.404 307.348 135.038 310.861 146.672C314.373 158.306 316.542 163.084 316.542 163.084C316.542 163.084 308.566 180.848 333.246 188.846C357.926 196.845 410.915 202.662 410.915 202.662L442.491 307.006L457.372 303.007L445.292 182.847L386.235 161.942L389.865 140.128L377.525 145.218L356.951 122.41L348.489 123.404V123.404Z" fill="#E6E6E6"/>
<path d="M409.968 225.129L418.754 227.982L435.54 189.635L422.574 185.425L409.968 225.129Z" fill="#A0616A"/>
<path d="M434.82 252.689C434.374 254.186 432.952 255.083 431.644 254.692L414.081 249.446C414.081 249.446 414.425 241.97 408.27 236.871L404.82 246.68L395.76 243.973L401.623 228.295C401.623 228.295 401.748 219.008 408.084 216.134C414.421 213.26 410.163 212.652 410.163 212.652L415.092 203.337L428.302 209.039L423.773 224.62L425.822 242.04L434.132 249.774C434.871 250.462 435.142 251.607 434.82 252.689L434.82 252.689V252.689Z" fill="#2F2E41"/>
<path d="M373.961 146.672L389.865 140.128L426.885 116.132C426.885 116.132 455.194 93.4476 457.372 124.059C459.549 154.671 439.225 201.935 439.225 201.935L413.093 194.663L415.748 162.26L381.517 172.485L373.961 146.672Z" fill="#E6E6E6"/>
<path d="M333.857 65.8448L353.933 120.131L381.154 150.308L408.012 132.856L376.979 124.858L377.802 106.679L333.857 65.8448Z" fill="#2F2E41"/>
<path d="M215.958 353.174V354.736H205.148L205.121 353.174L201.381 153.368H215.383L215.411 158.973L215.958 353.174Z" fill="#3F3D56"/>
<path d="M440.911 136.161C438.653 135.05 436.833 133.519 435.635 131.874L413.455 122.645L418.148 112.201L440.142 122.687C442.174 122.632 444.495 123.141 446.754 124.252C451.912 126.792 454.787 131.517 453.173 134.805C451.56 138.094 446.07 138.701 440.911 136.161V136.161Z" fill="#A0616A"/>
<path d="M323.809 63.0509L328.939 60.8208C328.939 60.8208 349.215 66.6064 351.03 69.9186C352.845 73.2309 363.007 87.0465 363.007 87.0465L434.869 117.586L428.336 130.675L377.525 117.586L349.941 88.5008L323.809 63.0509V63.0509Z" fill="#2F2E41"/>
<path d="M315.825 58.6881L291.871 57.2338L279.531 63.778L293.322 124.858C293.322 124.858 333.937 107.406 351.739 112.86C351.739 112.86 358.177 96.1488 346.8 86.5077L328.165 61.5966L315.825 58.6881V58.6881Z" fill="#FF0009"/>
<path d="M290.419 60.8695L290.188 58.511L266.465 67.4137C266.465 67.4137 257.754 73.958 254.851 76.8665C251.947 79.7751 243.237 85.5922 243.237 85.5922L250.495 59.4152L238.881 54.3252C238.881 54.3252 204.039 100.135 220.734 103.771C237.429 107.406 266.465 100.862 266.465 100.862L267.917 181.575L328.528 183.393L303.485 99.4079L290.419 60.8695V60.8695Z" fill="#2F2E41"/>
<path d="M308.483 53.9771C319.82 53.9771 329.011 44.7706 329.011 33.4139C329.011 22.0572 319.82 12.8507 308.483 12.8507C297.146 12.8507 287.956 22.0572 287.956 33.4139C287.956 44.7706 297.146 53.9771 308.483 53.9771Z" fill="#A0616A"/>
<path d="M298.766 0.153213C285.647 2.18738 286.272 7.0709 282.071 9.60604C274.67 14.0724 271.75 26.9699 275.659 35.4807C276.703 37.7548 278.905 40.8569 277.836 44.2064C277.016 46.7777 274.651 48.2946 274.207 48.5693C270.572 50.8176 272.946 48.1429 271.303 50.0236C269.49 52.0994 272.299 55.0317 270.577 58.7492C269.051 62.045 265.905 61.7668 265.496 63.8392C264.793 67.4079 272.87 74.5834 281.466 74.0192C289.119 73.5168 294.805 67.035 296.709 60.9307C297.985 56.8416 298.535 49.808 295.257 46.3879C294.798 45.9082 293.541 44.7466 292.354 42.7522C291.414 41.1739 290.177 39.0963 290.902 37.6622C291.674 36.1343 293.863 36.9385 295.257 35.4807C297.148 33.5038 294.902 30.1638 295.257 26.7551C295.86 20.983 304.024 14.0409 312.679 15.1208C322.497 16.3459 326.098 27.0406 326.47 28.2093C327.242 30.6317 327.227 32.9752 327.196 37.6622C327.152 44.3884 327.124 48.6042 325.019 52.9321C321.99 59.157 318.131 58.4845 317.034 63.1121C315.323 70.3272 323.372 77.5735 324.293 78.382C331.118 84.376 341.428 86.1782 343.166 83.472C344.732 81.0333 337.856 77.2399 338.084 69.6563C338.282 63.0845 343.591 61.0811 342.44 56.5678C341.172 51.5997 334.409 52.733 331.552 47.115C328.885 41.8711 333.8 38.9616 333.003 28.2094C332.835 25.9348 332.122 19.4069 327.922 12.9394C326.072 10.0901 324.19 7.19232 320.663 5.668C316.715 3.96154 305.706 -0.922762 298.766 0.153213Z" fill="#2F2E41"/>
<path d="M290.056 18.3317C290.588 22.8344 297.338 25.0411 300.218 25.6031C301.438 25.8412 305.56 26.6455 309.655 24.876C311.168 24.2219 311.72 23.6304 313.284 23.4217C315.402 23.1392 316.47 23.9463 319.817 24.876C323.54 25.9098 325.401 26.4267 326.35 25.6031C327.902 24.2568 326.71 19.8523 324.898 16.8774C321.549 11.3767 315.418 9.67339 312.558 8.87889C309.291 7.97121 302.662 6.12921 296.589 9.60603C295.777 10.0709 289.515 13.7569 290.056 18.3317V18.3317Z" fill="#2F2E41"/>
<path d="M448.809 136.302C439.122 140.828 435.272 134.918 435.272 134.918L435.275 133.156L435.304 110.499C442.052 106.088 453.438 112.495 453.438 112.495L449.056 135.028L448.809 136.302V136.302Z" fill="#3F3D56"/>
<path d="M451.943 108.352C451.943 108.352 441.927 104.057 436.518 107.292C436.518 107.292 430.877 113.019 435.295 114.683L452.685 116.371C452.685 116.371 456.639 113.715 454.915 111.529C453.19 109.344 451.943 108.352 451.943 108.352V108.352Z" fill="#FF0009"/>
<path d="M93.7453 288.146L102.096 356L166.121 355.071L166.91 288.146H93.7453Z" fill="#FF0000"/>
<path d="M146.921 276.864C145.004 276.984 143.945 274.598 145.395 273.208L145.54 272.633C145.521 272.587 145.502 272.542 145.483 272.496C143.539 267.855 140.06 272.236 135.046 272.547C127.672 273.006 127.782 278.593 130.639 285.125C131.414 286.898 124.831 272.59 124.831 262.984C124.831 260.571 124.963 258.157 125.233 255.75C125.454 253.781 125.76 251.823 126.156 249.884C128.295 239.402 132.928 229.418 139.61 221.079C142.823 219.32 145.502 216.571 147.12 213.275C147.701 212.086 152.696 211.082 152.911 209.779C152.546 209.827 146.994 203.975 147.27 203.633C146.76 202.859 145.848 202.474 145.292 201.718C142.525 197.96 138.712 198.616 136.722 203.723C132.47 205.873 132.429 209.438 135.037 212.866C136.697 215.048 136.925 217.999 138.382 220.335C138.232 220.527 138.076 220.713 137.926 220.905C137.869 220.979 137.811 221.053 137.754 221.128C135.403 224.175 130.709 223.394 129.4 219.773C129.305 219.509 128.495 233.814 129.104 219.008C129.714 204.202 124.398 211.739 121.707 208.325C118.492 204.247 111.953 206.1 111.386 211.265C111.381 211.315 111.376 211.364 111.371 211.414C111.769 211.638 112.158 211.877 112.539 212.13C114.71 213.568 113.959 216.939 111.387 217.336L111.329 217.345C111.472 218.78 111.718 220.203 112.078 221.602C108.644 234.905 116.055 239.752 126.639 239.972L127.191 240.758C126.189 243.647 125.382 246.606 124.777 249.602C124.208 252.382 123.812 255.191 123.591 258.013L123.581 258.134C123.398 260.534 120.366 261.555 118.842 259.693C118.454 259.22 118.057 258.804 117.657 258.475C113.068 254.699 106.585 253.308 101.634 250.273C99.2511 248.812 96.1972 250.7 96.6132 253.468L96.6334 253.6C97.3706 253.901 98.0897 254.249 98.7849 254.639C99.1833 254.864 99.5735 255.103 99.9546 255.356C102.126 256.794 101.374 260.166 98.8012 260.562L98.7429 260.571C98.701 260.577 98.665 260.583 98.6231 260.589L98.6612 260.679C100.316 264.579 104.273 267.106 108.497 266.874C113.47 266.602 119.647 270.767 125.095 278.131L125.101 278.131C126.18 282.838 127.756 287.436 129.782 291.819H146.502C146.562 291.633 146.616 291.441 146.67 291.255C145.124 291.351 143.566 291.261 142.043 290.979C143.284 289.454 144.525 287.917 145.765 286.392C145.795 286.362 145.819 286.332 145.843 286.302C146.472 285.521 147.108 284.747 147.737 283.966L147.737 283.965C147.777 281.57 147.49 279.182 146.922 276.864L146.921 276.864Z" fill="#F2F2F2"/>
<path d="M541 354.885C541 355.316 540.651 355.665 540.221 355.665H0V354.104H540.221C540.651 354.104 541 354.453 541 354.885Z" fill="#E6E6E6"/>
</g>
<defs>
<clipPath id="clip0_97_220">
<rect width="541" height="356" fill="white"/>
</clipPath>
</defs>
</svg>
